<?xml version="1.0" encoding="UTF-8"?>
<svg id="Layer_1" data-name="Layer 1" xmlns="http://www.w3.org/2000/svg" version="1.1" viewBox="0 0 100 100">
  <defs>
    <style>
      .cls-1 {
        fill: none;
      }

      .cls-1, .cls-2, .cls-3, .cls-4, .cls-5 {
        stroke-width: 0px;
      }

      .cls-2 {
        fill: #000d21;
      }

      .cls-3 {
        fill: #4bc6ea;
      }

      .cls-4 {
        fill: #e7d8c9;
      }

      .cls-5 {
        fill: #fff;
      }
    </style>
  </defs>
  <rect class="cls-2" x="-408.8" y="67.8" width="78.7" height="135.8"/>
  <g>
    <path class="cls-1" d="M51.5,63.9c1.4,0,2.8.2,4.3.4h0c1.3,0,2.6.2,3.9.4.8,0,1.2,0,1.3-1,.3-3.2.6-6.3.8-9.5,0-.3-.2-.6-.3-.9-.3,0-.7,0-.9.3-3.2,3-6.4,6-9.5,9.1-.2.2-.3.6-.3.9s.5.3.8.4h0Z"/>
    <path class="cls-1" d="M80.5,69.1c-13-1.2-26.1-2.3-39.1-3.5-3.6-.3-3.6.9-2.5,3.5,2.2,5,6.2,8.3,10.8,10.9,1.5.8,2.6.7,3.8-.4.3-.3.7-.5,1-.9.8-1.1,1.4-1,2.3,0,3,3.3,6.2,3.3,9.2,0,.8-.9,1.3-.9,2.1,0,2.5,2.8,5.4,2.8,8,.2.4-.4.7-.9,1-1.4h0c1.2,1,2,1.8,3,2.4,3.1-3.1,5.7-6.6,7.8-10.4-2.4-.2-4.9-.4-7.3-.6v.2Z"/>
    <path class="cls-1" d="M65.3,65.1c5.2.4,10.5.9,15.7,1.3.6,0,1.2-.3,1.8-.4-.2-.5-.3-1.1-.6-1.6-3.1-4.3-6.3-8.5-9.4-12.8-1.8-2.4-3.5-4.8-5.3-7.2-.3-.4-.9-.5-1.3-.7-.2.4-.5.8-.6,1.3-.6,6.1-1.1,12.3-1.7,18.3h0c0,1.6,0,1.7,1.4,1.8Z"/>
    <path class="cls-1" d="M84.7,80.2c2.6-2,4.7-4.4,6-7.4.9-2.1.4-2.9-1.9-3h-.2c-2.1,3.9-4.8,7.5-8,10.7,1.3.7,2.7.7,4-.3h0Z"/>
    <path class="cls-1" d="M33.9,64.9c0-17.1,14.1-31.1,31.2-31h0c12.6,0,23.3,7.4,28.2,18,0-1.5.2-3,.2-4.5,0-12.4-4.8-24.1-13.6-32.8C71.2,5.7,59.6.9,47.2.9S23.1,5.7,14.4,14.5C5.6,23.2.8,34.9.8,47.3s4.8,24.1,13.6,32.8c8.8,8.8,20.4,13.6,32.8,13.6s3.5,0,5.2-.3c-10.9-4.9-18.5-15.9-18.4-28.5h0Z"/>
    <path class="cls-4" d="M47.2,93.7c-12.4,0-24.1-4.8-32.8-13.6C5.6,71.4.8,59.7.8,47.3S5.6,23.2,14.4,14.5C23.1,5.7,34.8.9,47.2.9s24.1,4.8,32.8,13.6c8.8,8.8,13.6,20.4,13.6,32.8s0,3-.2,4.5c.2.4.4.9.6,1.4.2-1.9.4-3.9.4-5.9,0-12.6-4.9-24.5-13.8-33.4C71.6,5,59.8.1,47.2.1S22.7,5,13.8,13.9C4.9,22.9,0,34.7,0,47.3s4.9,24.5,13.8,33.4c8.9,8.9,20.8,13.8,33.4,13.8s4.4-.2,6.6-.5c-.5-.2-.9-.4-1.4-.6-1.7.2-3.4.3-5.2.3Z"/>
    <polygon class="cls-5" points="55.8 64.3 55.8 64.3 55.8 64.3 55.8 64.3"/>
    <polygon class="cls-5" points="65.2 33.9 65.2 33.9 65.2 33.9 65.2 33.9"/>
    <path class="cls-5" d="M94,53.2c-.2-.5-.4-.9-.6-1.4-5-10.6-15.7-17.9-28.2-18-17.1,0-31.2,13.9-31.2,31s7.6,23.7,18.4,28.5c.5.2.9.4,1.4.6,3.5,1.4,7.2,2.1,11.2,2.1,17.3,0,31.4-13.8,31.4-31s-.8-8.3-2.3-12v.2ZM63.9,63.4h0c.5-6,1.1-12.1,1.7-18.3,0-.4.4-.9.6-1.3.4.2,1,.3,1.3.7,1.8,2.4,3.6,4.8,5.3,7.2,3.1,4.3,6.3,8.5,9.4,12.8.3.4.4,1.1.6,1.6-.6,0-1.2.5-1.8.4-5.2-.4-10.5-.9-15.7-1.3-1.4,0-1.5-.2-1.4-1.8ZM51.1,62.7c3.2-3,6.3-6.1,9.5-9.1.2-.2.6-.2.9-.3,0,.3.3.6.3.9-.2,3.2-.5,6.3-.8,9.5,0,.9-.5,1.1-1.3,1-1.3,0-2.6-.2-3.9-.4h0c-1.4,0-2.9-.2-4.3-.4-.3,0-.7-.2-.8-.4,0-.3,0-.7.3-.9h0ZM90.7,72.8c-1.4,3-3.4,5.4-6,7.4-1.2.9-2.7.9-4,.3,0,0-.3-.2-.4-.3,0,0,0,0-.2,0-.9-.6-1.8-1.4-3-2.4h0c-.3.5-.6,1-1,1.4-2.7,2.6-5.6,2.6-8-.2-.8-1-1.3-.9-2.1,0-3,3.2-6.2,3.2-9.2,0-.9-1-1.5-1.1-2.3,0-.2.3-.6.6-1,.9-1.2,1-2.3,1.2-3.8.4-4.6-2.7-8.6-5.9-10.8-10.9-1.2-2.6-1.1-3.9,2.5-3.5,13,1.2,26.1,2.3,39.1,3.5,2.4.2,4.9.4,7.3.6h1c2.3.2,2.8,1,1.9,3h0Z"/>
  </g>
  <path class="cls-3" d="M65.1,99.9c-19.2,0-34.9-15.6-34.9-34.9s15.6-34.9,34.9-34.9,34.9,15.6,34.9,34.9-15.6,34.9-34.9,34.9ZM65.1,33.8c-17.2,0-31.2,14-31.2,31.2s14,31.2,31.2,31.2,31.2-14,31.2-31.2-14-31.2-31.2-31.2Z"/>
</svg>