<?xml version="1.0" encoding="UTF-8"?>
<svg id="Layer_1" data-name="Layer 1" xmlns="http://www.w3.org/2000/svg" version="1.1" viewBox="0 0 100 100">
  <defs>
    <style>
      .cls-1 {
        fill: #fff;
        stroke: #231f20;
        stroke-miterlimit: 10;
      }

      .cls-2 {
        fill: #70ceef;
        stroke-width: 0px;
      }
    </style>
  </defs>
  <path class="cls-1" d="M-23.4,59.3"/>
  <g>
    <path class="cls-2" d="M88.5,22.6h-12.5c-1.8,0-3.3,1.5-3.3,3.4v8.1c0,1.9,1.5,3.4,3.3,3.4h12.5c1.8,0,3.3-1.5,3.3-3.4v-8.1c0-1.9-1.5-3.4-3.3-3.4ZM88.1,33.7h-11.6v-7.2h11.6v7.2Z"/>
    <path class="cls-2" d="M90.2,16.6H26.4v-3.5c0-1.2-.9-2.1-2-2.1h-12.1c-1.1,0-2,.9-2,2.1v3.5h-.5c-5.4,0-9.8,4.6-9.8,10.2v50.9c0,5.6,4.4,10.2,9.8,10.2h80.4c5.4,0,9.8-4.6,9.8-10.2V26.8c0-5.6-4.4-10.2-9.8-10.2ZM96.3,77.7c0,3.5-2.7,6.3-6.1,6.3H9.8c-3.3,0-6.1-2.8-6.1-6.3v-33.7h19.3c-.3.4-.5.8-.7,1.2-.8,1.8-1.2,3.9-1.2,6s.4,4.2,1.2,6c.8,1.8,2.2,3,4.2,3.8,2.2.8,4.2,3.2,5.6,5l.2.3c.3.3.5.6.8,1,1.2,1.4,2,2.4,3.1,5.3,1,2.7,2.6,4.6,4.4,5.2,1.6.5,4.2,1.2,7.3,1.2s.4,0,.5,0c.2,0,.4,0,.6,0,3.1,0,5.7-.6,7.3-1.2,1.8-.6,3.4-2.5,4.4-5.2,1-2.9,1.9-3.9,3.1-5.3.3-.3.5-.6.8-.9l.2-.3c1.4-1.8,3.4-4.2,5.6-5,2-.7,3.4-2,4.2-3.8.8-1.8,1.2-3.9,1.2-6s-.4-4.2-1.2-6c-.2-.4-.4-.8-.7-1.2h22.3v33.7ZM24.8,51.2c0-2,.5-3.5.9-4.4.3-.8,1-1.3,2-1.7.8-.3,1.5-.7,2.3-1.2,1.1-.7,2.2-1.7,3.4-3.1.6-.7,1.1-1.3,1.6-1.9l.2-.3c.3-.3.5-.6.8-.9,1.3-1.6,2.5-2.9,3.8-6.5.6-1.7,1.5-2.7,2-2.9,1.4-.4,3.6-1,6.2-1s.3,0,.5,0c0,0,.4,0,.6,0,2.6,0,4.8.5,6.2,1,.4.1,1.3,1.1,2,2.9,1.3,3.6,2.4,4.9,3.8,6.5.2.3.5.6.8.9l.2.3c.5.6,1,1.3,1.6,1.9,1.2,1.3,2.3,2.3,3.4,3.1.8.5,1.5.9,2.3,1.2,1.1.4,1.7.9,2,1.7.4.9.9,2.4.9,4.4s-.5,3.5-.9,4.4c-.3.8-1,1.3-2,1.7-3.2,1.2-5.5,4.1-7.2,6.2l-.2.3c-.3.3-.5.6-.8.9-1.3,1.6-2.5,2.9-3.8,6.5-.6,1.7-1.5,2.7-2,2.9-1.4.4-3.6,1-6.2,1s-.6,0-.6,0c0,0-.3,0-.5,0-2.6,0-4.8-.5-6.2-1-.4-.1-1.3-1.1-2-2.9-1.3-3.6-2.4-4.9-3.8-6.5-.2-.3-.5-.6-.8-.9l-.2-.3c-1.7-2.1-4.1-5-7.2-6.2-1-.4-1.7-.9-2-1.7-.4-.9-.9-2.4-.9-4.4ZM96.3,40h-28.1c-1.3-1.1-2.5-2.5-3.3-3.6l-.2-.3c-.3-.3-.5-.6-.8-1-1.2-1.4-2-2.4-3.1-5.3-1-2.7-2.6-4.6-4.4-5.2-1.6-.5-4.2-1.2-7.3-1.2s-.4,0-.5,0c-.2,0-.4,0-.6,0-3.1,0-5.7.6-7.3,1.2-1.8.6-3.4,2.5-4.4,5.2-1,2.9-1.9,3.9-3.1,5.3-.3.3-.5.6-.8.9l-.2.3c-.9,1.1-2,2.5-3.3,3.6H3.7v-13.2c0-3.5,2.7-6.3,6.1-6.3h80.4c3.3,0,6.1,2.8,6.1,6.3v13.2Z"/>
    <path class="cls-2" d="M48.5,65.9c7.8,0,14.2-6.6,14.2-14.7s-6.3-14.7-14.2-14.7-14.2,6.6-14.2,14.7,6.4,14.7,14.2,14.7ZM48.5,40.6c5.7,0,10.3,4.8,10.3,10.7s-4.6,10.7-10.3,10.7-10.3-4.8-10.3-10.7,4.6-10.7,10.3-10.7Z"/>
    <path class="cls-2" d="M44.9,49.2c.5-1.4,1.8-1.7,2.8-1.7s.7,0,.7,0h.4c0,0,1.4-4.2,1.4-4.2l-.5-.2c-.6-.2-1.2-.3-1.9-.3-.1,0-.2,0-.3,0-3.7,0-6.7,2.8-6.8,6.4,0,.5,0,1,.1,1.5v.4c0,0,.6,0,.6,0,1.8,0,3-.7,3.5-2Z"/>
  </g>
</svg>