<?xml version="1.0" encoding="UTF-8"?>
<svg id="Layer_1" data-name="Layer 1" xmlns="http://www.w3.org/2000/svg" xmlns:xlink="http://www.w3.org/1999/xlink" version="1.1" viewBox="0 0 90.4 57.2">
  <defs>
    <style>
      .cls-1 {
        clip-path: url(#clippath);
      }

      .cls-2 {
        fill: none;
      }

      .cls-2, .cls-3, .cls-4, .cls-5, .cls-6, .cls-7 {
        stroke-width: 0px;
      }

      .cls-3, .cls-5, .cls-6 {
        fill: #272324;
      }

      .cls-4 {
        fill: #2c292a;
      }

      .cls-5 {
        opacity: 0;
      }

      .cls-6 {
        opacity: .6;
      }

      .cls-8 {
        opacity: .8;
      }

      .cls-7 {
        fill: #fff;
      }
    </style>
    <clipPath id="clippath">
      <path class="cls-2" d="M85.8,57.1H4.6C2.1,57.1,0,55.1,0,52.5V4.7C0,2.2,2.1.1,4.5.3h81.2c2.6-.2,4.6,1.9,4.6,4.4v47.8c0,2.5-2.1,4.6-4.6,4.6Z"/>
    </clipPath>
  </defs>
  <rect class="cls-3" x="0" y=".2" width="90.4" height="57" rx="3" ry="3"/>
  <g class="cls-1">
    <g>
      <rect class="cls-4" x="-21.5" y="23.9" width="122" height="3.2" transform="translate(-6.7 34.6) rotate(-44)"/>
      <rect class="cls-4" x="-15.9" y="24" width="122" height="3.2" transform="translate(-5.2 38.5) rotate(-44)"/>
      <polygon class="cls-4" points="95.7 -15.4 7.9 69.3 5.9 66.9 93.8 -17.8 95.7 -15.4"/>
      <rect class="cls-4" x="-4.8" y="24.2" width="122" height="3.2" transform="translate(-2.2 46.3) rotate(-44)"/>
      <rect class="cls-4" x=".8" y="24.3" width="122" height="3.2" transform="translate(-.7 50.2) rotate(-44)"/>
      <rect class="cls-4" x="6.4" y="24.4" width="122" height="3.2" transform="translate(.8 54.1) rotate(-44)"/>
      <rect class="cls-4" x="12" y="24.5" width="122" height="3.2" transform="translate(2.3 58) rotate(-44)"/>
      <rect class="cls-4" x="17.6" y="24.7" width="122" height="3.2" transform="translate(3.8 61.9) rotate(-44)"/>
      <rect class="cls-4" x="23.1" y="24.8" width="122" height="3.2" transform="translate(5.3 65.8) rotate(-44)"/>
      <rect class="cls-4" x="28.7" y="24.9" width="122" height="3.2" transform="translate(6.8 69.7) rotate(-44)"/>
      <rect class="cls-4" x="34.3" y="25" width="122" height="3.2" transform="translate(8.2 73.6) rotate(-44)"/>
      <rect class="cls-4" x="39.9" y="25.1" width="122" height="3.2" transform="translate(9.7 77.5) rotate(-44)"/>
      <rect class="cls-4" x="45.5" y="25.2" width="122" height="3.2" transform="translate(11.2 81.4) rotate(-44)"/>
      <rect class="cls-4" x="51.1" y="25.3" width="122" height="3.2" transform="translate(12.7 85.3) rotate(-44)"/>
      <rect class="cls-4" x="53.8" y="28.1" width="122" height="3.2" transform="translate(11.5 88) rotate(-44)"/>
      <rect class="cls-4" x="-24.2" y="21.1" width="122" height="3.2" transform="translate(-5.5 31.9) rotate(-44)"/>
      <rect class="cls-4" x="-26.9" y="18.3" width="122" height="3.2" transform="translate(-4.3 29.3) rotate(-44)"/>
      <rect class="cls-4" x="-29.6" y="15.5" width="122" height="3.2" transform="translate(-3.1 26.6) rotate(-44)"/>
      <rect class="cls-4" x="-32.3" y="12.8" width="122" height="3.2" transform="translate(-1.9 23.9) rotate(-44)"/>
      <rect class="cls-4" x="-35" y="10" width="122" height="3.2" transform="translate(-.8 21.3) rotate(-44)"/>
      <rect class="cls-4" x="-37.7" y="7.2" width="122" height="3.2" transform="translate(.4 18.6) rotate(-44)"/>
      <rect class="cls-4" x="-40.4" y="4.4" width="122" height="3.2" transform="translate(1.6 16) rotate(-44)"/>
      <rect class="cls-4" x="-43.1" y="1.6" width="122" height="3.2" transform="translate(2.8 13.3) rotate(-44)"/>
      <rect class="cls-4" x="-45.8" y="-1.2" width="122" height="3.2" transform="translate(4 10.7) rotate(-44)"/>
      <rect class="cls-4" x="-48.5" y="-4" width="122" height="3.2" transform="translate(5.2 8) rotate(-44)"/>
      <rect class="cls-4" x="-51.2" y="-6.8" width="122" height="3.2" transform="translate(6.4 5.4) rotate(-44)"/>
      <rect class="cls-4" x="-53.9" y="-9.6" width="122" height="3.2" transform="translate(7.6 2.7) rotate(-44)"/>
      <rect class="cls-4" x="-56.6" y="-12.4" width="122" height="3.2" transform="translate(8.7 0) rotate(-44)"/>
    </g>
  </g>
  <g class="cls-8">
    <path class="cls-6" d="M2.9,57.1h84.6c1.6,0,2.9-1.3,2.9-2.9V17.9h-34.5l-22.1,21.4H0v14.9c0,1.6,1.3,2.9,2.9,2.9Z"/>
    <path class="cls-5" d="M55.9,17.9h34.5V3.3c0-1.7-1.4-3.1-3.1-3.1H3.1C1.4.2,0,1.6,0,3.3v36.1h33.7l22.1-21.4Z"/>
  </g>
  <g>
    <path class="cls-7" d="M7.4,43.8c.4,0,.6.3.6.7,0,0,0,.3,0,.6,0,.6,0,.8-.3,1-.1.1-.4.2-.7.2-.1,0-.5,0-.7,0-.6,0-.9,0-1,0-.3,0-.4-.2-.5-.3,0-.2-.1-.4-.1-.9s0-.5,0-.7c0-.3.2-.4.5-.5.2,0,.4,0,1.1,0s.9,0,1.1,0ZM5.6,44.5c0,0-.1.2-.1.5s0,.5.1.6c0,0,.2,0,.8,0s.8,0,.9-.1c0,0,0-.2,0-.5,0-.6,0-.6-.9-.6s-.7,0-.8,0Z"/>
    <path class="cls-7" d="M8.4,43.8h1.2l1.5,1.9v-1.9s.7,0,.7,0v2.4h-1.2l-1.5-1.8v1.8s-.7,0-.7,0v-2.4Z"/>
    <path class="cls-7" d="M14.8,43.8v.6h-2v.4h1.9v.5h-1.9v.4h2v.6h-2.7v-2.4h2.7Z"/>
    <path class="cls-7" d="M16.3,44.4h-1.1v-.6h2.9v.6h-1.1v1.8h-.7v-1.8Z"/>
    <path class="cls-7" d="M19,43.8h1l1.3,2.4h-.8l-.2-.4h-1.6l-.2.4h-.8l1.4-2.4ZM20,45.3l-.5-1-.5,1h1Z"/>
    <path class="cls-7" d="M21.5,43.8h1.9c.5,0,.6,0,.7,0,.2.1.3.3.3.8s0,.7-.3.8c-.1,0-.3.1-.7.1h-1.2v.6h-.7v-2.4ZM23.3,45.1c.3,0,.4,0,.4-.3s0-.4-.4-.4h-1.1v.7h1.1Z"/>
  </g>
  <path class="cls-7" d="M69.6,24.5h0s0,0,0,0Z"/>
  <path class="cls-7" d="M70.1,24.4s0,0,0,0c0,0,0,0,0,0Z"/>
  <g>
    <path class="cls-7" d="M7,49.5c-.1,0-.2,0-.7,0s-.8,0-.8-.6,0-.5.1-.6c0,0,.2,0,.8,0s.7,0,.7.3h.7c0-.4,0-.7-.3-.8-.2-.1-.4-.1-1.3-.1s-.9,0-1.1.2c-.3.1-.3.4-.3,1s0,1,.3,1.1c.2.1.4.2,1.1.2s.8,0,.9,0c.4,0,.6-.1.7-.3,0-.1,0-.2,0-.6h-.7c0,.2,0,.3-.1.3Z"/>
    <path class="cls-7" d="M10.9,47.7c-.2,0-.4,0-1.1,0s-.9,0-1.1,0c-.3,0-.4.2-.5.5,0,.2,0,.3,0,.7s0,.7.1.9c0,.2.2.3.5.3.1,0,.4,0,1,0s.6,0,.7,0c.4,0,.6,0,.7-.2.2-.2.3-.4.3-1s0-.5,0-.6c0-.4-.2-.6-.6-.7ZM10.7,49.4c0,.1-.2.1-.9.1s-.7,0-.8,0c0,0-.1-.2-.1-.6s0-.5.1-.5c0,0,.2,0,.8,0,.9,0,.9,0,.9.6s0,.5,0,.5Z"/>
    <polygon class="cls-7" points="17.2 49.5 15.7 47.7 14.5 47.7 14.5 49.5 13 47.7 11.9 47.7 11.9 50.1 12.6 50.1 12.5 48.3 14 50.1 15.2 50.1 15.2 48.2 16.7 50.1 17.9 50.1 17.9 47.7 17.2 47.7 17.2 49.5"/>
    <polygon class="cls-7" points="19.1 49.2 20.9 49.2 20.9 48.7 19.1 48.7 19.1 48.2 21 48.2 21 47.7 18.3 47.7 18.3 50.1 21.1 50.1 21.1 49.6 19.1 49.6 19.1 49.2"/>
    <path class="cls-7" d="M23.6,49.5c-.1,0-.2,0-.7,0s-.8,0-.8-.6,0-.5.1-.6c0,0,.2,0,.8,0s.7,0,.7.3h.7c0-.4,0-.7-.3-.8-.2-.1-.4-.1-1.3-.1s-.9,0-1.1.2c-.3.1-.3.4-.3,1s0,1,.3,1.1c.2.1.4.2,1.1.2s.8,0,.9,0c.4,0,.6-.1.7-.3,0-.1,0-.2,0-.6h-.7c0,.2,0,.3-.1.3Z"/>
    <polygon class="cls-7" points="25.7 50.1 26.5 50.1 26.5 48.3 25.7 48.7 25.7 50.1"/>
    <rect class="cls-7" x="24.6" y="47.7" width="2.9" height=".6"/>
  </g>
  <g>
    <path class="cls-7" d="M41.9,34.3c2.5,1.4,5.6,1.1,7.8-1.1,2.5-2.5,2.5-6.6,0-9.1,0,0,0,0,0,0,0,0,0,0,0,0,0,0-.1,0-.2,0s-.2,0-.2,0h0c0,0-.7.7-.7.7,0,0,0,0,0,0l-1.2,1.2-.5-1s-.1-.1-.2-.1c-.1,0-.2,0-.2,0,0,0,0,.1,0,.1v1.9c0,0,0,.3.2.4h0s0,0,0,0c0,0,0,0,0,0h0c.1.1.4.1.4.1h1.9c0,0,0,0,.1,0,0,0,0,0,0-.2,0-.1-.1-.2-.1-.2l-1-.5,1.2-1.2c.5.6.9,1.4,1.1,2.1.4,1.6,0,3.4-1.4,4.7-1.4,1.5-3.6,1.8-5.4,1.2,0,0,0,0-.1,0-.2,0-.3-.1-.5-.2s0,0,0,0c0,0,0,0,0,0l-.8.8s0,0,0,.1,0,.1,0,.1"/>
    <path class="cls-7" d="M45.2,32.6c0,0-.2,0-.3,0v-.2c0-.5-.1-1.1-.1-1.6,0-1.5-1.3-1.7-1.6-1.7h-1.9c0-.2,0-.3,0-.4s0-.2,0-.2h1.8c.4-.1,1.6-.3,1.6-1.8,0-.5,0-1.1.1-1.7v-.2c.1,0,.2,0,.3,0s.1,0,.2,0v.2c0,.6.1,1.2.1,1.7,0,1.5,1.3,1.7,1.6,1.7h2c0,.2,0,.3,0,.3s0,.2,0,.3h-2c-.4.2-1.6.3-1.6,1.8,0,.5,0,1.1-.1,1.6v.2c0,0-.1,0-.2,0Z"/>
  </g>
  <g>
    <path class="cls-7" d="M50.2,24.5h0s0,0,0,0c0,0,0,0,0,0Z"/>
    <path class="cls-7" d="M49.1,25.4l6.9-6.9s0,0,0,0c0,0,.1,0,.1,0h34.2c0,0,0-1.1,0-1.1h-34.3c0,0-.2,0-.3,0-.1,0-.2.1-.2.1l-6.6,6.6"/>
  </g>
  <path class="cls-7" d="M48.4,23c-2.5-1.4-5.6-1.1-7.8,1.1-2.4,2.4-2.5,6.2-.4,8.7l-.7.6-5.8,5.5s0,0,0,0c0,0,0,0,0,0H0s0,1,0,1h33.8s0,0,0,0c.3,0,.4-.1.4-.1l8.8-8.3.5,1s.1.1.2.1c.1,0,.2,0,.2,0,0,0,0,0,0-.1,0,0,0,0,0,0v-1.9c0,0,0-.3-.2-.4h0s0,0,0,0c0,0,0,0,0,0h0c-.1-.1-.4-.1-.4-.1h-1.9c0,0,0,0,0,0,0,0,0,0,0,0,0,0,0,0,0,.2s.1.2.1.2l1,.5-.4.5h0s0,0,0,0l-.6.6c-.5-.6-.9-1.4-1.1-2.1-.4-1.6,0-3.4,1.4-4.7,1.4-1.5,3.6-1.8,5.4-1.2,0,0,0,0,.1,0,.2,0,.3.1.5.2,0,0,0,0,0,0,0,0,0,0,0,0l.8-.8s0,0,0-.1c0,0,0-.1,0-.1Z"/>
</svg>