<?xml version="1.0" encoding="UTF-8"?>
<svg id="Layer_1" data-name="Layer 1" xmlns="http://www.w3.org/2000/svg" xmlns:xlink="http://www.w3.org/1999/xlink" version="1.1" viewBox="0 0 90.4 57.2">
  <defs>
    <style>
      .cls-1 {
        clip-path: url(#clippath);
      }

      .cls-2 {
        fill: none;
      }

      .cls-2, .cls-3, .cls-4, .cls-5, .cls-6, .cls-7 {
        stroke-width: 0px;
      }

      .cls-3 {
        isolation: isolate;
        opacity: .6;
      }

      .cls-3, .cls-5, .cls-6 {
        fill: #272324;
      }

      .cls-4 {
        fill: #2c292a;
      }

      .cls-5 {
        fill-opacity: 0;
      }

      .cls-8 {
        opacity: .8;
      }

      .cls-7 {
        fill: #fff;
      }
    </style>
    <clipPath id="clippath">
      <path class="cls-2" d="M85.8,57H4.6c-2.5,0-4.6-2-4.6-4.6V4.6C0,2.1,2.1,0,4.5.2h81.2C88.3,0,90.3,2.1,90.3,4.6v47.8c0,2.5-2.1,4.6-4.6,4.6h.1Z"/>
    </clipPath>
  </defs>
  <rect class="cls-6" y=".1" width="90.4" height="57" rx="3" ry="3"/>
  <g class="cls-1">
    <g>
      <rect class="cls-4" x="-21.6" y="23.8" width="122" height="3.2" transform="translate(-6.6 34.5) rotate(-44)"/>
      <rect class="cls-4" x="-16" y="23.9" width="122" height="3.2" transform="translate(-5.1 38.4) rotate(-44)"/>
      <polygon class="cls-4" points="95.7 -15.5 7.9 69.2 5.9 66.8 93.8 -17.9 95.7 -15.5"/>
      <rect class="cls-4" x="-4.9" y="24.1" width="122" height="3.2" transform="translate(-2.1 46.2) rotate(-44)"/>
      <rect class="cls-4" x=".7" y="24.2" width="122" height="3.2" transform="translate(-.6 50.1) rotate(-44)"/>
      <rect class="cls-4" x="6.3" y="24.3" width="122" height="3.2" transform="translate(.9 54) rotate(-44)"/>
      <rect class="cls-4" x="11.9" y="24.4" width="122" height="3.2" transform="translate(2.4 58) rotate(-44)"/>
      <rect class="cls-4" x="17.6" y="24.5" width="122" height="3.2" transform="translate(3.9 61.9) rotate(-44)"/>
      <rect class="cls-4" x="23.1" y="24.7" width="122" height="3.2" transform="translate(5.4 65.8) rotate(-44)"/>
      <rect class="cls-4" x="28.7" y="24.8" width="122" height="3.2" transform="translate(6.9 69.7) rotate(-44)"/>
      <rect class="cls-4" x="34.2" y="24.8" width="122" height="3.2" transform="translate(8.4 73.6) rotate(-44)"/>
      <rect class="cls-4" x="39.8" y="24.9" width="122" height="3.2" transform="translate(9.9 77.5) rotate(-44)"/>
      <rect class="cls-4" x="45.4" y="25" width="122" height="3.2" transform="translate(11.4 81.4) rotate(-44)"/>
      <rect class="cls-4" x="51" y="25.1" width="122" height="3.2" transform="translate(12.9 85.3) rotate(-44)"/>
      <rect class="cls-4" x="53.7" y="27.9" width="122" height="3.2" transform="translate(11.7 88) rotate(-44)"/>
      <rect class="cls-4" x="-24.3" y="21" width="122" height="3.2" transform="translate(-5.4 31.9) rotate(-44)"/>
      <rect class="cls-4" x="-26.9" y="18.2" width="122" height="3.2" transform="translate(-4.2 29.2) rotate(-44)"/>
      <rect class="cls-4" x="-29.6" y="15.4" width="122" height="3.2" transform="translate(-3 26.6) rotate(-44)"/>
      <rect class="cls-4" x="-32.3" y="12.6" width="122" height="3.2" transform="translate(-1.8 24) rotate(-44)"/>
      <rect class="cls-4" x="-35" y="9.9" width="122" height="3.2" transform="translate(-.7 21.3) rotate(-44)"/>
      <rect class="cls-4" x="-37.7" y="7" width="122" height="3.2" transform="translate(.5 18.6) rotate(-44)"/>
      <rect class="cls-4" x="-40.4" y="4.3" width="122" height="3.2" transform="translate(1.7 16) rotate(-44)"/>
      <rect class="cls-4" x="-43.1" y="1.5" width="122" height="3.2" transform="translate(2.9 13.3) rotate(-44)"/>
      <rect class="cls-4" x="-45.8" y="-1.3" width="122" height="3.2" transform="translate(4 10.7) rotate(-44)"/>
      <rect class="cls-4" x="-48.5" y="-4.1" width="122" height="3.2" transform="translate(5.3 8) rotate(-44)"/>
      <rect class="cls-4" x="-51.2" y="-6.8" width="122" height="3.2" transform="translate(6.4 5.4) rotate(-44)"/>
      <rect class="cls-4" x="-53.8" y="-9.7" width="122" height="3.2" transform="translate(7.6 2.7) rotate(-44)"/>
      <rect class="cls-4" x="-56.6" y="-12.5" width="122" height="3.2" transform="translate(8.8 0) rotate(-44)"/>
    </g>
  </g>
  <g class="cls-8">
    <path class="cls-3" d="M2.8,57h84.6c1.6,0,2.9-1.3,2.9-2.9V17.8h-34.5l-22.1,21.4H0v14.9c0,1.6,1.3,2.9,2.9,2.9Z"/>
    <path class="cls-5" d="M55.9,17.8h34.5V3.2c0-1.7-1.4-3.1-3.1-3.1H3.1c-1.7,0-3.1,1.4-3.1,3.1v36.1h33.7l22.1-21.4h0Z"/>
  </g>
  <g>
    <path class="cls-7" d="M7.4,43.7c.4,0,.6.3.6.7v.6c0,.6,0,.8-.3,1,0,0-.4.2-.7.2h-1.7c-.3,0-.4-.2-.5-.3,0-.2,0-.4,0-.9v-.7c0-.3.2-.4.5-.5h2.2ZM5.6,44.4s0,.2,0,.5,0,.5,0,.6h.8c.6,0,.8,0,.9,0v-.5q0-.6-.9-.6c-.9,0-.7,0-.8,0h0Z"/>
    <path class="cls-7" d="M8.4,43.7h1.2l1.5,1.9v-1.9h.7v2.4h-1.2l-1.5-1.8v1.8h-.7v-2.4Z"/>
    <path class="cls-7" d="M14.8,43.7v.6h-2v.4h1.9v.5h-1.9v.4h2v.6h-2.7v-2.4h2.7Z"/>
    <path class="cls-7" d="M16.3,44.3h-1.1v-.6h2.9v.6h-1.1v1.8h-.7s0-1.8,0-1.8Z"/>
    <path class="cls-7" d="M19,43.7h1l1.3,2.4h-.8l-.2-.4h-1.6l-.2.4h-.8l1.4-2.4h0ZM20,45.2l-.5-1-.5,1h1Z"/>
    <path class="cls-7" d="M21.5,43.7h2.6c.2,0,.3.3.3.8s0,.7-.3.8c-.1,0-.3,0-.7,0h-1.2v.6h-.7v-2.4h0ZM23.3,45c.3,0,.4,0,.4-.3s0-.4-.4-.4h-1.1v.7h1.1Z"/>
  </g>
  <path class="cls-7" d="M69.6,24.4h0Z"/>
  <path class="cls-7" d="M70.1,24.3h0Z"/>
  <g>
    <path class="cls-7" d="M7,49.4h-.7c-.5,0-.8,0-.8-.6s0-.5,0-.6h.8c.6,0,.7,0,.7.3h.7c0-.4,0-.7-.3-.8-.2,0-.4,0-1.3,0s-.9,0-1.1.2c-.3,0-.3.4-.3,1s0,1,.3,1.1c.2,0,.4.2,1.1.2h.9c.4,0,.6,0,.7-.3v-.6h-.7c0,.2,0,.3,0,.3h0Z"/>
    <path class="cls-7" d="M10.9,47.6h-2.2c-.3,0-.4.2-.5.5v.7c0,.4,0,.7.1.9,0,.2.2.3.5.3h1.7c.4,0,.6,0,.7-.2.2-.2.3-.4.3-1v-.6c0-.4-.2-.6-.6-.7h0ZM10.7,49.3c0,0-.2,0-.9,0h-.8s-.1-.2-.1-.6,0-.5.1-.5h.8q.9,0,.9.6c0,.6,0,.5,0,.5h0Z"/>
    <polygon class="cls-7" points="17.2 49.4 15.7 47.6 14.5 47.6 14.5 49.4 13 47.6 11.9 47.6 11.9 50 12.6 50 12.5 48.2 14 50 15.2 50 15.2 48.1 16.7 50 17.9 50 17.9 47.6 17.2 47.6 17.2 49.4"/>
    <polygon class="cls-7" points="19.1 49.1 20.9 49.1 20.9 48.6 19.1 48.6 19.1 48.1 21 48.1 21 47.6 18.3 47.6 18.3 50 21.1 50 21.1 49.5 19.1 49.5 19.1 49.1"/>
    <path class="cls-7" d="M23.6,49.4h-.7c-.5,0-.8,0-.8-.6s0-.5.1-.6h.8c.6,0,.7,0,.7.3h.7c0-.4,0-.7-.3-.8-.2,0-.4,0-1.3,0s-.9,0-1.1.2c-.3,0-.3.4-.3,1s0,1,.3,1.1c.2,0,.4.2,1.1.2h.9c.4,0,.6,0,.7-.3v-.6h-.7c0,.2,0,.3-.1.3h0Z"/>
    <polygon class="cls-7" points="25.7 50 26.5 50 26.5 48.2 25.7 48.6 25.7 50"/>
    <rect class="cls-7" x="24.6" y="47.6" width="2.9" height=".6"/>
  </g>
  <g>
    <path class="cls-7" d="M41.9,34.2c2.5,1.4,5.6,1.1,7.8-1.1,2.5-2.5,2.5-6.6,0-9.1h-.4l-.7.7h0l-1.2,1.2-.5-1s0-.1-.2-.1h-.2v2s0,.3.2.4h0c0,.1.4.1.4.1h2v-.2c0-.1,0-.2,0-.2l-1-.5,1.2-1.2c.5.6.9,1.4,1.1,2.1.4,1.6,0,3.4-1.4,4.7-1.4,1.5-3.6,1.8-5.4,1.2h0c-.2,0-.3,0-.5-.2s0,0,0,0h0l-.8.8h0v.2"/>
    <path class="cls-7" d="M45.2,32.5h-.3v-.2c0-.5,0-1.1,0-1.6,0-1.5-1.3-1.7-1.6-1.7h-1.9v-.6h1.8c.4-.1,1.6-.3,1.6-1.8s0-1.1,0-1.7v-.2h.5v.2c0,.6,0,1.2,0,1.7,0,1.5,1.3,1.7,1.6,1.7h2v.6h-2c-.4.2-1.6.3-1.6,1.8s0,1.1,0,1.6v.2h-.2.1Z"/>
  </g>
  <g>
    <path class="cls-7" d="M50.2,24.4h0Z"/>
    <path class="cls-7" d="M49.1,25.3l6.9-6.9h34.3v-1.1h-34.6c0,0-.2.1-.2.1l-6.6,6.6"/>
  </g>
  <path class="cls-7" d="M48.4,22.9c-2.5-1.4-5.6-1.1-7.8,1.1-2.4,2.4-2.5,6.2-.4,8.7l-.7.6-5.8,5.5H0v1h33.8c.3,0,.4,0,.4,0l8.8-8.3.5,1s0,0,.2,0h.2v-2s0-.3-.2-.4h0c0-.1-.4-.1-.4-.1h-1.9v.2c0,.2,0,.2,0,.2l1,.5-.4.5h0l-.6.6c-.5-.6-.9-1.4-1.1-2.1-.4-1.6,0-3.4,1.4-4.7,1.4-1.5,3.6-1.8,5.4-1.2h0c.2,0,.3.1.5.2h0l.8-.8h0v-.2l-.2-.3Z"/>
</svg>