<?xml version="1.0" encoding="UTF-8"?>
<svg id="Layer_1" data-name="Layer 1" xmlns="http://www.w3.org/2000/svg" version="1.1" viewBox="0 0 100 100">
  <defs>
    <style>
      .cls-1 {
        fill: #ce7628;
      }

      .cls-1, .cls-2, .cls-3, .cls-4, .cls-5 {
        stroke-width: 0px;
      }

      .cls-2 {
        fill: #fac77e;
      }

      .cls-3 {
        fill: #000;
      }

      .cls-4 {
        fill: #b7bfd6;
      }

      .cls-5 {
        fill: #231f20;
      }

      .cls-6 {
        fill: #fff;
        stroke: #231f20;
        stroke-miterlimit: 10;
      }
    </style>
  </defs>
  <g>
    <circle class="cls-4" cx="49.8" cy="50.1" r="47.4"/>
    <path class="cls-3" d="M49.8,4.1C24.4,4.1,3.8,24.7,3.8,50.1s20.6,46,46,46,46-20.6,46-46S75.1,4.1,49.8,4.1ZM49.8,98.9C22.8,98.9.9,77,.9,50.1S22.8,1.2,49.8,1.2s48.9,21.9,48.9,48.9-21.9,48.9-48.9,48.9Z"/>
  </g>
  <path class="cls-6" d="M79.8,72.8"/>
  <g>
    <path class="cls-1" d="M63.8,32.7l2.6-11.8-14.1,1.8-2.2,5.3c4.8,1.3,9.9,2.8,13.7,4.7Z"/>
    <path class="cls-2" d="M73.3,50.5l-4.1-13.4c-.9-1.7-2.8-3.2-5.4-4.5-3.8-1.9-8.9-3.4-13.7-4.7l2.2-5.3,3.7-8.9c-2.6-.4-5.2-.4-7.8-.2-14.9,1.2-28.2,11.4-32.4,26.7-1.8,6.3-1.7,12.6-.3,18.6,3,12.3,12.4,22.8,25.5,26.5.4,0,.7.2,1.1.3,1.3.3,2.5.5,3.7.8,10.2,1.5,20.3-1.5,28.1-7.6,2-1.6,9.2-18.7,10.1-21.2l-10.7-7Z"/>
  </g>
  <g>
    <line class="cls-5" x1="65.5" y1="57.5" x2="46.2" y2="62.4"/>
    <path class="cls-3" d="M46.2,63.9c-.6,0-1.2-.4-1.4-1.1-.2-.8.3-1.5,1-1.7l19.2-4.9c.8-.2,1.5.3,1.7,1,.2.8-.3,1.5-1,1.7l-19.2,4.9c-.1,0-.2,0-.4,0Z"/>
  </g>
  <circle class="cls-3" cx="59.7" cy="47.6" r="3.8"/>
  <g>
    <line class="cls-5" x1="68.4" y1="61.9" x2="55.9" y2="71.4"/>
    <path class="cls-3" d="M55.9,72.8c-.4,0-.9-.2-1.1-.6-.5-.6-.4-1.5.3-2l12.6-9.5c.6-.5,1.5-.4,2,.3.5.6.4,1.5-.3,2l-12.6,9.5c-.3.2-.6.3-.9.3Z"/>
  </g>
  <path class="cls-3" d="M64.6,22.6l-1.8,8c-.3-.1-.5-.2-.8-.3-.1,0-.2,0-.3-.1-.4-.2-.9-.4-1.4-.5-.1,0-.2,0-.4-.1-.4-.1-.7-.3-1.1-.4-.2,0-.3-.1-.5-.2-.3-.1-.6-.2-1-.3-.2,0-.4-.1-.6-.2-.3-.1-.7-.2-1-.3-.2,0-.4-.1-.6-.2-.4-.1-.7-.2-1.1-.3-.2,0-.3,0-.5-.1-.5-.2-1-.3-1.6-.5l1.3-3,11.2-1.4ZM85.4,57.3c0-.4-.3-.8-.6-1l-10.2-6.7-3.9-12.9c0,0,0-.2,0-.2-.8-1.7-2.5-3.2-5.1-4.6l2.4-10.7c.1-.5,0-.9-.3-1.3-.3-.3-.8-.5-1.2-.5l-11.6,1.5,2.8-6.6c.2-.4.1-.9,0-1.3-.2-.4-.6-.6-1-.7-2.7-.4-5.4-.5-8.1-.2-15.9,1.2-29.4,12.4-33.7,27.7-1.8,6.3-1.9,13-.3,19.3,3.3,13.2,13.4,23.8,26.5,27.5.4,0,.7.2,1.1.3,1.2.3,2.4.5,3.9.8,1.8.3,3.6.4,5.4.4,8.6,0,17-2.9,23.8-8.3,2.3-1.8,8.4-16.5,10.1-20.7,0,0,.5-1.1.5-1.8ZM78.1,67.6c-.3,0-.6,0-.9,0-1.4,0-4.5-1-4.5-1,0,0-1.5-.6-2-.3-1.2.6.6,1.7,2.1,2.8,1.1.7,2.9,1.4,3.8,1.8-1.6,3.3-3,6.1-3.6,6.6-7.6,6-17.4,8.7-26.9,7.3-1.4-.2-2.5-.5-3.6-.7-.3,0-.7-.2-1-.3-12.1-3.4-21.5-13.2-24.5-25.4-1.4-5.8-1.3-12,.3-17.8,4-14.2,16.5-24.5,31.2-25.6.9,0,1.8-.1,2.7-.1s2,0,2.9.1l-3,7.1s0,0,0,0l-2.2,5.3c-.2.4-.1.8,0,1.2s.5.6.9.8c5,1.4,9.8,2.8,13.4,4.6,2.5,1.2,4,2.5,4.7,3.7l4,13.3c0,.3.3.6.6.8l5.3,3.4c-.8,1.4-1.6,3-1.2,3.5.4.5,2.8,1.5,4.6,2.1-.8,2-1.9,4.4-3,6.8Z"/>
</svg>