<?xml version="1.0" encoding="UTF-8"?>
<svg id="Layer_1" data-name="Layer 1" xmlns="http://www.w3.org/2000/svg" version="1.1" viewBox="0 0 100 100">
  <defs>
    <style>
      .cls-1 {
        fill: #dee4f3;
      }

      .cls-1, .cls-2 {
        stroke-width: 0px;
      }

      .cls-2 {
        fill: #dfe5f4;
      }

      .cls-3 {
        fill: #fff;
        stroke: #231f20;
        stroke-miterlimit: 10;
      }
    </style>
  </defs>
  <path class="cls-2" d="M78.6,100H21.4c-11.8,0-21.4-9.6-21.4-21.4V21.4C0,9.6,9.6,0,21.4,0h57.2c11.8,0,21.4,9.6,21.4,21.4v57.2c0,11.8-9.6,21.4-21.4,21.4ZM21.4,4c-9.6,0-17.4,7.8-17.4,17.4v57.2c0,9.6,7.8,17.4,17.4,17.4h57.2c9.6,0,17.4-7.8,17.4-17.4V21.4c0-9.6-7.8-17.4-17.4-17.4H21.4Z"/>
  <g>
    <circle class="cls-1" cx="58.4" cy="48" r="3.1" transform="translate(-16.1 34.8) rotate(-29.4)"/>
    <path class="cls-1" d="M64.1,55.7c-.2-.6-.8-1-1.4-.8l-15.4,3.9c-.6.2-1,.8-.8,1.4.1.5.6.9,1.1.9s.2,0,.3,0l15.4-3.9c.6-.2,1-.8.8-1.4Z"/>
    <path class="cls-1" d="M64.6,58.6l-10.1,7.6c-.5.4-.6,1.1-.2,1.6.2.3.6.5.9.5s.5,0,.7-.2l10.1-7.6c.5-.4.6-1.1.2-1.6-.4-.5-1.1-.6-1.6-.2Z"/>
    <path class="cls-1" d="M79.1,55.9s0,0-.1-.1c0-.3-.2-.6-.5-.8l-8.2-5.3-3.1-10.3c0,0,0-.1,0-.2-.7-1.3-2-2.6-4-3.7l1.9-8.5c0-.4,0-.8-.3-1.1-.3-.3-.6-.4-1-.4l-9.2,1.2,2.2-5.2c.1-.3.1-.7,0-1-.2-.3-.5-.5-.9-.6-2.2-.3-4.3-.4-6.5-.2-12.7,1-23.6,9.9-27,22.2-1.4,5-1.5,10.4-.2,15.5,2.6,10.6,10.8,19.1,21.3,22.1.3,0,.6.2.9.2.9.2,1.9.4,3.1.6,1.4.2,2.9.3,4.3.3,6.9,0,13.7-2.4,19.1-6.7,1.9-1.5,7.1-14.1,8.1-16.6.3-.6.5-1,.6-1.3h0s0,0,0,0ZM67.1,63c-.2.1-.3.3-.3.4,0,.5.8,1.1,1.7,1.7.1,0,.2.1.3.2.8.6,2.2,1.1,3,1.4-1.4,3.1-2.4,4.9-2.9,5.2-6.1,4.8-13.9,7-21.5,5.9-1.1-.2-2-.4-2.9-.6-.3,0-.5-.1-.8-.2-9.7-2.8-17.2-10.6-19.6-20.4-1.2-4.7-1.1-9.6.2-14.3,3.2-11.3,13.2-19.6,24.9-20.5.7,0,1.4,0,2.2,0s1.5,0,2.3,0l-4.1,9.9c-.1.3-.1.7,0,1,.1.3.4.5.7.6,4,1.1,7.8,2.2,10.7,3.7,2,1,3.2,2,3.8,3l3.2,10.6c0,.3.3.5.5.6l4.2,2.7c-.9,1.5-1.2,2.5-1,2.8.3.4,2.1,1.2,3.6,1.7-.7,1.7-1.5,3.6-2.4,5.4-.3,0-.5,0-.7,0h0c-1.1,0-3.6-.8-3.6-.8,0,0-1.2-.5-1.7-.3Z"/>
  </g>
  <path class="cls-3" d="M-23.4,59.3"/>
</svg>