<?xml version="1.0" encoding="UTF-8"?>
<svg id="Layer_1" data-name="Layer 1" xmlns="http://www.w3.org/2000/svg" version="1.1" viewBox="0 0 100 100">
  <defs>
    <style>
      .cls-1 {
        fill: #82d3f0;
      }

      .cls-1, .cls-2, .cls-3 {
        stroke-width: 0px;
      }

      .cls-2 {
        fill: #a3a5a8;
      }

      .cls-3 {
        fill: #fff;
      }
    </style>
  </defs>
  <path class="cls-1" d="M79.5,100H20.8"/>
  <g>
    <path class="cls-3" d="M49.8,99.2c-1.2,0-2.5,0-3.7-.2l-.2-2.4c-.5-6.7-1.1-14.3-1.4-20.4-.9-18.7-15.7-21.1-20.3-21.3l-23.2-1.7c0-1.2-.1-2.3-.1-3.4s0-1.9.1-2.9l23.1-1.4c4.7-.2,19.6-2.4,20.7-21.1.4-6.1,1-14.3,1.6-21.5l.2-2c1.3,0,2.5-.1,3.8-.1s1.5,0,2.3.1l.2,2.4c.5,7.1,1.1,15.1,1.3,21.2.9,18.7,15.7,21,20.3,21.3l24.8,1.7c0,.9,0,1.8,0,2.7,0,1.1,0,2.2-.1,3.5l-24.6,1.4c-4.7.2-19.6,2.4-20.7,21.1-.4,6-1,13.4-1.5,20l-.2,2.9c-.7,0-1.5,0-2.2,0Z"/>
    <path class="cls-2" d="M49.4-.3l.8-.8c-.3.2-.6.5-.8.8Z"/>
    <path class="cls-2" d="M49.3-1.3c.4.3.7.6,1.1,1-.3-.4-.7-.7-1.1-1Z"/>
  </g>
</svg>