<?xml version="1.0" encoding="UTF-8"?>
<svg id="Layer_1" data-name="Layer 1" xmlns="http://www.w3.org/2000/svg" version="1.1" viewBox="0 0 100 100">
  <defs>
    <style>
      .cls-1 {
        fill: #dee4f3;
      }

      .cls-1, .cls-2 {
        stroke-width: 0px;
      }

      .cls-2 {
        fill: #dfe5f4;
      }
    </style>
  </defs>
  <path class="cls-2" d="M78.6,100H21.4c-11.8,0-21.4-9.6-21.4-21.4V21.4C0,9.6,9.6,0,21.4,0h57.2c11.8,0,21.4,9.6,21.4,21.4v57.2c0,11.8-9.6,21.4-21.4,21.4ZM21.4,4c-9.6,0-17.4,7.8-17.4,17.4v57.2c0,9.6,7.8,17.4,17.4,17.4h57.2c9.6,0,17.4-7.8,17.4-17.4V21.4c0-9.6-7.8-17.4-17.4-17.4H21.4Z"/>
  <path class="cls-1" d="M78,38.8h-8.5c-.3,0-.5,0-.8.1v-12.6c0-1.3-1.1-2.4-2.4-2.4h-8.9c-.2,0-.5,0-.7.1v-3.5c0-1.3-1.1-2.4-2.4-2.4h-8.5c-1.3,0-2.4,1.1-2.4,2.4v3.5c-.2,0-.4,0-.6,0h-8.9c-1.3,0-2.4,1.1-2.4,2.4v12.6c-.3-.1-.6-.2-.9-.2h-8.6c-1.3,0-2.4,1.1-2.4,2.4v8.7c0,1.3,1.1,2.4,2.4,2.4h8.6c.3,0,.6,0,.9-.2v12.6c0,1.3,1.1,2.4,2.4,2.4h8.9c.2,0,.4,0,.5,0v12.4c0,1.3,1.1,2.4,2.4,2.4h8.6c1.3,0,2.4-1.1,2.4-2.4v-12.5c.2,0,.5.1.8.1h8.9c1.3,0,2.4-1.1,2.4-2.4v-12.6c.2,0,.5.1.8.1h8.5c1.3,0,2.4-1.1,2.4-2.4v-8.7c0-1.3-1.1-2.4-2.4-2.4ZM30.6,49.9h-8.6v-8.7h8.6v8.7ZM45.8,20.5h8.5v17.5h-8.5v-17.5ZM54.3,79.5h-8.6v-26.5h8.6v26.5ZM66.3,64.7h-8.9v-14.6h-14.6v14.6h-8.9V26.4h8.9v14.6h14.7v-14.6h8.9v38.4ZM78,49.9h-8.5v-8.7h8.5v8.7Z"/>
</svg>