<?xml version="1.0" encoding="UTF-8"?>
<svg id="Layer_1" data-name="Layer 1" xmlns="http://www.w3.org/2000/svg" version="1.1" viewBox="0 0 100 100">
  <defs>
    <style>
      .cls-1 {
        fill: #000;
        stroke-width: 0px;
      }
    </style>
  </defs>
  <path class="cls-1" d="M25.9,91.9c18.5,10.8,42.2,8.1,58-7.7,18.9-18.8,19-49.4.2-68.3,0,0-.2-.2-.3-.2-.2-.2-.4-.4-.6-.6-.5-.3-1-.5-1.6-.5s-1.3.2-1.8.6l-.5.5-4.9,4.9s0,0,0,0l-9.2,9.2-3.5-7.7s-.9-.8-1.7-.8c-.8,0-1.3.6-1.3.6-.4.4-.4.7-.4,1l.6,14.5c0,.4,0,2.1.9,3.1h0s0,0,0,0c0,0,0,0,0,0h0c1,.9,2.8.9,3.1.9l14.5.7c.2,0,.6,0,1-.4,0,0,.5-.5.6-1.3,0-.8-.8-1.7-.8-1.7l-7.7-3.6,9.3-9.2c3.9,4.8,6.6,10.3,7.8,16,2.7,12.3-.7,25.8-10.3,35.3-10.9,10.8-26.7,13.7-40.2,8.7-.3,0-.6-.2-.9-.3-1.3-.5-2.2-.9-3.5-1.6s-.4-.1-.7-.1c-.5,0-.7.3-.7.3l-5.8,5.9s-.4.4-.3.9.6.9.6.9"/>
  <path class="cls-1" d="M74.1,8.1C55.7-2.7,31.9,0,16.1,15.8c-18.9,18.8-19,49.4-.2,68.3,0,0,.2.2.3.2.2.2.4.4.6.6.5.3,1,.5,1.6.5s1.3-.2,1.8-.6l.5-.5,4.9-4.9s0,0,0,0l9.2-9.2,3.5,7.7s.9.8,1.7.8c.8,0,1.3-.6,1.3-.6.4-.4.4-.7.4-1l-.6-14.5c0-.4,0-2.1-.9-3.1h0s0,0,0,0c0,0,0,0,0,0h0c-1-.9-2.8-.9-3.1-.9l-14.5-.7c-.2,0-.6,0-1,.4,0,0-.5.5-.6,1.3,0,.8.8,1.7.8,1.7l7.7,3.6-9.3,9.2c-3.9-4.8-6.6-10.3-7.8-16-2.7-12.3.7-25.8,10.3-35.3,10.9-10.8,26.7-13.7,40.2-8.7.3,0,.6.2.9.3,1.3.5,2.2.9,3.5,1.6,0,0,.4.1.7.1.5,0,.7-.3.7-.3l5.8-5.9s.4-.4.3-.9-.6-.9-.6-.9"/>
  <path class="cls-1" d="M80.1,47.8l-15.5-1c-.7,0-10.8-.2-11.4-11.9-.2-4.2-.7-10.1-1-14.8-.7,0-1.4-.1-2.2-.1-1,0-2.1,0-3.1.2-.3,4.7-.8,10.5-1,14.8-.6,11.7-10.8,11.8-11.5,11.8l-14.5.9c0,.8-.1,1.7-.1,2.5s0,1.9.1,2.8l14.5,1c.7,0,10.8.2,11.4,11.9.2,4.4.7,9.9,1.1,14.4,1,0,2,.2,3,.2s1.4,0,2.1-.1c.3-4.5.8-10.1,1-14.4.6-11.7,10.8-11.8,11.5-11.8l15.4-.9c0-.9.1-1.9.1-2.9s0-1.6-.1-2.4Z"/>
</svg>