<?xml version="1.0" encoding="UTF-8"?>
<svg id="Layer_1" data-name="Layer 1" xmlns="http://www.w3.org/2000/svg" version="1.1" viewBox="0 0 100 100">
  <defs>
    <style>
      .cls-1 {
        fill: #000;
      }

      .cls-1, .cls-2 {
        stroke-width: 0px;
      }

      .cls-2 {
        fill: #fff;
      }
    </style>
  </defs>
  <path class="cls-1" d="M98.3,50.1c0,26.7-21.7,48.2-48.5,48.1-26.6,0-48.2-21.7-48.2-48.3S23.3,1.7,50,1.7c27,0,48.4,21.4,48.4,48.4h0ZM50,5.7c-23.9,0-43.5,19.4-43.5,43.2,0,23.9,19.3,43.5,43.2,43.6,24.1,0,43.7-19.3,43.8-43.2,0-24.2-19.3-43.6-43.5-43.7h0Z"/>
  <path class="cls-2" d="M50,5.7c24.2,0,43.5,19.5,43.5,43.7,0,23.9-19.7,43.2-43.8,43.2-23.9,0-43.3-19.7-43.2-43.6,0-23.9,19.6-43.3,43.5-43.2ZM66.7,66.6c1.8,1.5,3,2.7,4.4,3.6,2,1.3,4.2,1.4,6.2,0,3.6-2.7,6.5-6.1,8.4-10.3,1.3-2.9.5-4-2.6-4.2-3.9-.3-7.7-.6-11.6-.9-18.2-1.6-36.3-3.2-54.5-4.9-5-.5-5,1.2-3.4,4.9,3.1,7,8.6,11.5,15.1,15.2,2,1.2,3.6.9,5.3-.5.4-.4,1-.7,1.3-1.2,1.1-1.5,1.9-1.4,3.2,0,4.1,4.6,8.6,4.6,12.8,0,1.2-1.3,1.8-1.3,2.9,0,3.4,3.9,7.5,3.9,11.2.3.6-.5.9-1.3,1.4-1.9h0ZM48,46.4c-.1,2.6,0,2.7,2.3,2.9,8.4.7,16.8,1.5,25.2,2.1.9,0,1.9-.4,2.8-.7-.3-.9-.4-1.8-1-2.5-5-6.9-10-13.7-15-20.5-2.8-3.9-5.6-7.7-8.6-11.5-.4-.6-1.4-.7-2.1-1.1-.3.7-.8,1.4-.9,2.1-.9,9.8-1.8,19.7-2.7,29.2h0ZM37,48h0c1.8.2,3.6.3,5.4.5,1.1.1,1.7-.2,1.8-1.4.4-4.4.8-8.8,1.1-13.2,0-.4-.3-.8-.4-1.3-.4.2-1,.2-1.3.5-4.4,4.2-8.9,8.4-13.3,12.6-.3.3-.5.9-.4,1.3,0,.2.7.4,1.1.5,2,.2,4,.3,6,.5h0Z"/>
  <path class="cls-1" d="M66.7,66.6c-.5.6-.8,1.4-1.4,1.9-3.7,3.7-7.8,3.6-11.2-.3-1.2-1.3-1.8-1.3-2.9,0-4.2,4.5-8.7,4.5-12.8,0-1.3-1.4-2.1-1.5-3.2,0-.3.5-.9.8-1.3,1.2-1.6,1.5-3.2,1.7-5.3.5-6.4-3.7-12-8.2-15.1-15.2-1.6-3.7-1.6-5.4,3.4-4.9,18.2,1.7,36.3,3.3,54.5,4.9,3.9.3,7.7.6,11.6.9,3.2.2,3.9,1.4,2.6,4.2-1.9,4.2-4.8,7.6-8.4,10.3-1.9,1.5-4.2,1.3-6.2,0-1.4-.9-2.6-2.1-4.4-3.6h0Z"/>
  <path class="cls-1" d="M48,46.4c.9-9.6,1.7-19.4,2.7-29.2,0-.7.6-1.4.9-2.1.7.4,1.7.5,2.1,1.1,2.9,3.8,5.7,7.7,8.6,11.5,5,6.8,10.1,13.6,15,20.5.5.7.6,1.7,1,2.5-.9.2-1.9.7-2.8.7-8.4-.7-16.8-1.4-25.2-2.1-2.3-.2-2.4-.2-2.3-2.9h0Z"/>
  <path class="cls-1" d="M37,48c-2-.2-4-.3-6-.5-.4,0-1-.3-1.1-.5,0-.4.1-1,.4-1.3,4.4-4.2,8.8-8.4,13.3-12.6.3-.3.8-.3,1.3-.5.1.4.4.9.4,1.3-.3,4.4-.8,8.8-1.1,13.2,0,1.2-.7,1.5-1.8,1.4-1.8-.2-3.6-.3-5.4-.5h0Z"/>
</svg>