<?xml version="1.0" encoding="UTF-8"?>
<svg id="Layer_1" data-name="Layer 1" xmlns="http://www.w3.org/2000/svg" version="1.1" viewBox="0 0 100 100">
  <defs>
    <style>
      .cls-1 {
        fill: #000;
      }

      .cls-1, .cls-2 {
        stroke-width: 0px;
      }

      .cls-2 {
        fill: #fff;
      }
    </style>
  </defs>
  <path class="cls-1" d="M50,97c-27.1-.2-47.6-22.2-47-48.1C3.6,23.7,24,2.9,50.1,3c26.4.1,47.3,21.4,46.9,47.7-.4,25.6-20.9,46.2-47,46.4ZM63,48.1c1.8,0,3.6,0,5.3,0,2.1-.1,4.1-.7,5.1-2.8.5-1,.5-2.2-.3-3.1-.8-.8-1.7-.4-2.4.2-2.4,2.2-5.2,2.1-8,1.7-2.7-.4-5.5-.8-8.2-1-.6,0-1.6.3-1.9.8-.5.8.3,1.4,1,1.9,1.4,1.1,2.9,2.1,4.3,3.3,4.4,3.9,4.3,9.6-.2,13.3-4.7,3.9-13.5,3.6-17.7-.9-2.6-2.7-3.6-6-2.1-9.7,1.4-3.4,3.9-5.8,7-7.7,1.2-.7,2.5-1.5,3.5-2.4,1.1-.9.9-2.1-.4-2.7-.9-.4-2-.6-3-.9-1.6-.5-3.3-.8-4.8-1.4-2.3-1-3.2-3.7-2.3-6.4.8-2.6,3.7-4.8,5.9-4.5,1.2.2,1.8.9,1.7,2.1,0,.8-.2,1.7,0,2.4.3,1,.8,2.1,1.5,2.7,1.2,1.1,3.8.8,5.4-.4,1.4-1,1.9-2.7,1.4-4.5-1-3.9-5.7-6.9-10.2-6.4-5.7.6-9.5,4.2-10.6,9.9-.9,4.7,1,8,5.4,9.6.5.2,1,.4,1.6.6-.4.4-.7.7-1,.9-2.9,2.6-5.3,5.5-6.9,9-3.2,7-1.4,14.7,4.5,19.4,7,5.5,16.8,5.5,23.8,0,5.4-4.2,7.7-9.7,6.6-16.5-.5-2.8-2.1-5-4.1-6.8h0Z"/>
  <path class="cls-2" d="M63,48.1c2,1.8,3.6,3.9,4.1,6.8,1.1,6.8-1.1,12.3-6.6,16.5-7.1,5.5-16.8,5.4-23.8,0-5.9-4.6-7.8-12.4-4.5-19.4,1.6-3.5,4.1-6.5,6.9-9,.3-.3.6-.6,1-.9-.6-.2-1.1-.4-1.6-.6-4.4-1.6-6.3-5-5.4-9.6,1-5.6,4.9-9.2,10.6-9.9,4.5-.5,9.2,2.4,10.2,6.4.5,1.8,0,3.5-1.4,4.5-1.6,1.1-4.2,1.5-5.4.4-.7-.7-1.2-1.8-1.5-2.7-.2-.7,0-1.6,0-2.4,0-1.2-.6-1.9-1.7-2.1-2.2-.3-5.1,1.9-5.9,4.5-.9,2.7,0,5.3,2.3,6.4,1.5.7,3.2,1,4.8,1.4,1,.3,2.1.4,3,.9,1.3.6,1.5,1.8.4,2.7-1.1.9-2.3,1.7-3.5,2.4-3.1,1.9-5.6,4.2-7,7.7-1.5,3.7-.5,7,2.1,9.7,4.2,4.4,13,4.8,17.7.9,4.5-3.7,4.6-9.4.2-13.3-1.3-1.2-2.9-2.2-4.3-3.3-.6-.5-1.5-1.1-1-1.9.3-.5,1.3-.9,1.9-.8,2.8.2,5.5.6,8.2,1,2.9.4,5.7.5,8-1.7.6-.6,1.6-1,2.4-.2.9.9.8,2,.3,3.1-1,2.2-3,2.7-5.1,2.8-1.7.1-3.5,0-5.3,0h0Z"/>
</svg>