<?xml version="1.0" encoding="UTF-8"?>
<svg id="Layer_1" data-name="Layer 1" xmlns="http://www.w3.org/2000/svg" version="1.1" viewBox="0 0 100 100">
  <defs>
    <style>
      .cls-1 {
        fill: #000;
        stroke-width: 0px;
      }
    </style>
  </defs>
  <path class="cls-1" d="M54.2,11.5c-.3.2-.5.5-.8.7-4,2.6-6,6.4-6.6,11-.2,1.6-.2,3.2,0,4.8.3,3.3,2.1,4.1,5.1,3.3,2.7-.7,4.5-2.7,5.8-5.1,2.4-4.3,3.2-8.9,2.5-13.7-.2-1.6-.4-3.2-.8-4.8-.4-1.4-1.2-2.7-1.8-4-.2-.5-.5-1-.8-1.5.1,0,.2-.2.3-.3.4.3.9.6,1.2,1,1.3,1.8,2.1,3.9,2.6,6,1.4,5.5,1.4,11-.6,16.3-1.6,4.3-4.3,7.8-8.3,10-5.2,2.8-7.2,9.5-5.2,14.8,1.5,4,3.9,7.4,6.6,10.7,4.4,5.4,7.6,11.4,8.8,18.4.7,3.9.8,7.8-.3,11.7-.7,2.5-2,4.7-4,6.5-.6.6-1.3,1-2.3.7.2-.3.3-.5.4-.7,3.3-3.1,4.4-7.1,4.4-11.5,0-11.5-4.4-21-13.3-28.3-1.1-.9-2.5-1.6-3.8-2.2-1.1-.6-2-.1-2.4,1.1-.8,1.9-.5,3.8-.3,5.7.8,5.9,2.8,11.3,6.6,16,.3.4.6.8.8,1.3,0,.2,0,.4,0,.7-.2,0-.6,0-.7-.2-1-1.1-2-2.2-2.9-3.4-3.8-5-6-10.7-6.7-16.9-.3-3-.7-6-.7-9,0-3.8,1.7-6.9,4.1-9.7,1.7-2,3.2-4.1,3.5-6.8,0-1.1.1-2.2.1-3.4-.1-3.9,0-7.7,1.3-11.4,1.1-3.3,3.3-5.7,6.2-7.6.5-.3,1.1-.4,1.7-.6,0,.1.1.3.2.4h0Z"/>
  <path class="cls-1" d="M55.6,22.5c-.3,2.5-1.3,4.6-3.3,6.1-.4.3-1.3.4-1.8.3-.7-.3-.7-1.1-.6-1.8.5-2.7,2.3-4.4,4.3-6,.5-.4,1-.2,1.2.4.1.3.2.7.2,1h0Z"/>
</svg>