<?xml version="1.0" encoding="UTF-8"?>
<svg id="Layer_1" data-name="Layer 1" xmlns="http://www.w3.org/2000/svg" version="1.1" viewBox="0 0 100 100">
  <defs>
    <style>
      .cls-1 {
        fill: #000;
        stroke-width: 0px;
      }
    </style>
  </defs>
  <path class="cls-1" d="M61.4,38.8c-.4,3.5.7,6.2,2.2,9.1-.3-.1-.5-.2-.6-.2-10.3-6.1-19.9-13.3-27.7-22.6-3.9-4.6-7.3-9.6-9.4-15.4-.1-.3-.2-.7-.4-1.3,1.9,2.6,3.6,5,5.4,7.4,6.4,8.7,15,14.2,25.2,17.3,2.1.6,4.1,1.4,6.2,2.1,7.4,2.5,13.1,7.2,18,13.1,7.7,9.4,12.9,20,16.4,31.5.1.4.1.8.2,1.3-.2,0-.3.1-.5.2-1.7-3.1-3.4-6.4-5.3-9.4-1.9-3.1-4-6.2-6.3-9.1-2.2-2.9-4.7-5.7-7.1-8.4-2.5-2.7-5.1-5.4-7.7-7.9-2.7-2.5-5.5-4.9-8.5-7.6h0Z"/>
  <path class="cls-1" d="M3.2,37.2c5,.2,9.8,1.4,14.4,3.3,12.6,5.1,23.1,13.1,32.8,22.4.2.2.3.3.5.5,0,0,0,.2,0,.4-2.9-.6-5.8-.8-8.9.3,5.1,3.9,10.3,7.2,15.7,10,5.4,2.8,10.9,5.6,16.6,7.8,5.7,2.2,11.6,3.7,17.8,5.6-.6.2-1,.3-1.3.3-14.3-.6-28-3.5-40.5-10.7-5-2.9-8.9-6.9-12.1-11.6-2.6-3.9-5.3-7.7-8-11.5-5-6.8-12.1-10.9-19.7-14.1-2.4-1-4.9-1.8-7.4-2.7h0Z"/>
  <path class="cls-1" d="M36.4,40.4c.2.1.5.2.7.4,14,9.5,28.1,19,42,28.6,2.8,1.9,5.2,4.4,7.7,6.7.6.6,1.1,1.3,1.4,2.1.5,1.1,0,2-1.2,1.8-1.4-.3-2.8-.7-3.9-1.4-4.1-2.7-8.2-5.3-11.9-8.4-11.2-9.3-22.3-18.8-33.4-28.3-.5-.4-.9-.8-1.4-1.3,0,0,.1-.2.2-.2h0Z"/>
</svg>