<?xml version="1.0" encoding="UTF-8"?>
<svg id="Layer_1" data-name="Layer 1" xmlns="http://www.w3.org/2000/svg" version="1.1" viewBox="0 0 100 100">
  <defs>
    <style>
      .cls-1 {
        fill: #000;
        stroke-width: 0px;
      }
    </style>
  </defs>
  <path class="cls-1" d="M57.3,22.7c2.2-5.5,5.9-9.3,11.5-10.9,6.8-2,12.9-.5,17.9,4.7,4.4,4.6,5.8,10.2,4.3,16.6-2-1.5-4-2.1-6.3-2.1-4.5.1-8,2.3-10.6,5.8-1,1.4-1.8,3-2.3,4.7-1.9,5.3-4.8,9.6-10.3,11.6-1.1.4-2.4.6-3.6.8-.7.1-1,.3-.9,1,.2,6,5.5,11.3,11.5,11.8,3.8.3,8.2-.9,11.6-5.2,1,4.5-3.6,11.6-9.3,14.4-6.5,3.2-14.9,1.2-19.5-4.4-4.7-5.7-5.7-15.3,1.3-22.3-.6-.8-1.3-1.5-1.9-2.3,0,0,0-.1.1-.2.4.2.7.3,1.1.5,7.8,3.9,16.5-.3,18.4-8.7,1.2-5.1-1.2-10.4-5.9-13.3-1.9-1.2-4-2-6.2-2.3-.2,0-.5-.1-.9-.2h0Z"/>
  <path class="cls-1" d="M54.6,27.9c-4.4.2-7.9,3.9-7.8,8.2.1,4.4,3.8,8,8.1,7.9,4.5,0,8.2-3.8,8.1-8.2-.1-4.6-3.9-8.1-8.4-7.9h0ZM51.3,39.1c-1.2,0-2.2-1-2.2-2.2,0-1.2,1-2.1,2.2-2.1,1.2,0,2.1.9,2.1,2.1,0,1.2-1,2.2-2.1,2.2h0Z"/>
  <path class="cls-1" d="M60.4,1.7c-1.3,2.7-2.1,5.4-2,8.3,0,.8,0,1.7.3,2.4.3,1.1.2,2.2-.4,3.1-1.4,2.1-2.9,4.3-4.3,6.4-.1.2-.4.3-.6.4-1.4.7-2.7,1.3-4.1,2-4.6-8.6.9-20.7,11.2-22.6h0Z"/>
  <path class="cls-1" d="M28,53.2c-6.2,1.9-11.9,1-17-3.2,5.2,2.1,10.6,2.5,15.9.5s9.2-5.7,11.8-10.7c-.1.5-.2,1.1-.4,1.6-2,4.9-3.7,10-8.1,13.5-6.7,5.4-16.3,5.4-23,0-.1-.1-.3-.2-.4-.5,7.3,2.9,14.3,2.6,21.1-1.4h0Z"/>
  <path class="cls-1" d="M47.2,98.3c-.2-3.3-1.3-6.1-3.3-8.5-.3-.4-.4-1.1-.3-1.6.1-1.9,0-3.9.6-5.7.3-1.3,1.4-2.4,2.2-3.6,6.3,3.9,6.9,14.4.9,19.4h0Z"/>
  <path class="cls-1" d="M44.3,30.3c-7.2-4.7-7-14.7-1.9-19.1.4,1.5.8,3,1.4,4.5.3.8.8,1.7,1.4,2.3,2.6,2.8,1.8,6,1.2,9.1-.2,1.2-1.3,2.1-2,3.3h0Z"/>
  <path class="cls-1" d="M56,84.6c-1.3-1.6-2.7-2.8-4.7-3.3-.3,0-.7-.4-.9-.6-1.5-1.9-2.7-3.9-2.1-6.4,4.7-.6,9.5,5.7,7.6,10.3h0Z"/>
  <path class="cls-1" d="M35.1,25.6c1.3,1.7,3.1,2.5,5,3.5,1.6.8,2.5,2.7,2.8,4.6.1.7,0,1.5,0,2.2-4.4.4-9.5-4.7-7.8-10.3h0Z"/>
</svg>