<?xml version="1.0" encoding="UTF-8"?>
<svg id="Layer_1" data-name="Layer 1" xmlns="http://www.w3.org/2000/svg" version="1.1" viewBox="0 0 100 100">
  <defs>
    <style>
      .cls-1 {
        fill: #000;
      }

      .cls-1, .cls-2 {
        stroke-width: 0px;
      }

      .cls-2 {
        fill: #fff;
      }
    </style>
  </defs>
  <path class="cls-1" d="M49.9,57.9c-2.9,1.6-5.7,3.3-8.6,4.8-3,1.5-6.3,1.9-9.7,1.4-1-.1-2-.9-2.7-1.7-.8-.8,0-1.6.5-2.3,4.4-5,6.7-11,7.9-17.5.9-5.4.8-10.9,0-16.3-.9-5.5-1.8-11-3.9-16.3-.6-1.4-1.3-2.7-2-4.3,6.4.7,12.7,1.4,19.3,2.1-.7-2.2-1.3-4.3-2-6.5,2.2.2,4.2.4,6.2.7,2.1.2,4.1.6,6.2.7,1.3,0,2.1.6,2.5,1.8.6,2.2,1.3,4.4,1.5,6.7,1.1,10.5-1.1,20.6-4.9,30.4-.1.3-.3.7-.4,1.1,2.9,1.7,5.7,3.5,8.8,5.3.2-1.1.3-2,.5-2.9.1-.7.3-1.4.6-2,.6-1.4,1.6-1.6,2.7-.6.9.9,1.8,2,2.3,3.2,2,4.4,3.7,8.9,5.8,13.3,1.5,3,1.4,5.7.4,8.8-2.1,6.5-4.8,12.7-9.3,17.9-5.9,6.9-13.4,11-22.4,12.3-5.5.8-11.1.9-16.5-.8-8.3-2.7-14.4-8.1-17.1-16.6-.5-1.6-.4-3.5-.2-5.2.1-1.3,1-1.6,2.2-1.2,1.2.3,1.9,1,2.6,2.2.8,1.5,2.1,2.7,3.3,3.9,1.1,1,2.4,1.6,3.5,2.6,1.6,1.3,3.1,1.2,4.8.4,8-3.4,12.9-9.4,15.8-17.4,1-2.6,1.6-5.4,2.3-7.9h0ZM55.3,47.2c1,16.9-4.1,30.5-19.9,38.8,4.1.7,7.9.7,11.6-.3,7.2-2,11.9-6.8,15.1-13.3,2.9-5.9,4.3-12.2,4.9-18.7,0-.4-.4-1-.7-1.2-2.8-1.5-5.6-2.9-8.4-4.3-.8-.4-1.6-.7-2.6-1.1h0ZM36.5,59.2c0,0,.2.2.3.3,1.4-1.1,2.8-2.2,4.1-3.5,11.9-11.7,15-25.8,11.8-41.8-.1-.7-.4-1.1-1.2-1.1-2.7-.2-5.3-.5-8-.7-1,0-1.8.4-1.8,1.5,0,1.1,0,2.3.4,3.4,3,9.7,3.3,19.4.7,29.2-1.3,4.6-3.5,8.8-6.1,12.8h0Z"/>
  <path class="cls-2" d="M55.3,47.2c.9.4,1.8.7,2.6,1.1,2.8,1.4,5.7,2.9,8.4,4.3.4.2.8.8.7,1.2-.7,6.5-2,12.8-4.9,18.7-3.2,6.5-8,11.3-15.1,13.3-3.7,1-7.4,1-11.6.3,15.8-8.4,20.8-22,19.9-38.8h0Z"/>
  <path class="cls-2" d="M36.5,59.2c2.6-4,4.8-8.2,6.1-12.8,2.7-9.8,2.4-19.5-.7-29.2-.3-1.1-.4-2.2-.4-3.4,0-1.1.8-1.5,1.8-1.5,2.7.2,5.3.5,8,.7.8,0,1,.4,1.2,1.1,3.2,15.9.2,30.1-11.8,41.8-1.3,1.2-2.7,2.3-4.1,3.5,0,0-.2-.2-.3-.3h0Z"/>
</svg>