<?xml version="1.0" encoding="UTF-8"?>
<svg id="Layer_1" data-name="Layer 1" xmlns="http://www.w3.org/2000/svg" version="1.1" viewBox="0 0 100 100">
  <defs>
    <style>
      .cls-1 {
        fill: #f68922;
      }

      .cls-1, .cls-2 {
        stroke-width: 0px;
      }

      .cls-2 {
        fill: #fff;
      }
    </style>
  </defs>
  <g>
    <g>
      <path class="cls-2" d="M18,94.9c-.4.2-.6.2-2.6.2s-2.7-.2-2.7-2.2,0-1.7.4-2c.3-.3.7-.3,2.8-.3s2.4,0,2.5,1h2.5v-.3c0-1.3-.3-2-1-2.4-.7-.4-1.4-.4-4.6-.4s-3.2.1-4,.6c-.9.5-1.2,1.3-1.2,3.6s.2,3.4,1.1,4c.7.4,1.5.6,3.9.6s2.7,0,3.3,0c1.3,0,2-.4,2.4-1.2.2-.4.2-.8.2-2.1h-2.5c0,.6-.1.9-.5,1Z"/>
      <path class="cls-2" d="M31.6,88.6c-.6-.1-1.4-.1-3.8-.1s-3,0-3.8.3c-1,.3-1.5.8-1.7,1.7-.2.6-.2.9-.2,2.4s0,2.5.4,3.1c.3.6.9,1,1.8,1.2.5.1,1.6.1,3.6.1s2,0,2.4,0c1.2,0,2-.3,2.5-.7.7-.6.9-1.4.9-3.5s0-1.7,0-2.1c-.2-1.4-.8-2.1-2.1-2.3ZM30.9,94.6c-.3.4-.8.5-3,.5s-2.4,0-2.7-.3c-.3-.3-.4-.7-.4-2s.1-1.7.4-1.9c.3-.2.9-.3,2.8-.3,3.2,0,3.2,0,3.2,2.2s0,1.6-.3,1.9Z"/>
      <polygon class="cls-2" points="53.9 95 48.7 88.5 44.3 88.5 44.4 95 39.2 88.5 35.1 88.5 35.1 97.1 37.6 97.1 37.5 90.6 42.6 97.1 46.8 97.1 46.8 90.4 52.1 97.1 56.3 97.1 56.3 88.5 53.8 88.5 53.9 95"/>
      <polygon class="cls-2" points="60.3 93.6 66.8 93.6 66.8 91.9 60.3 91.9 60.3 90.5 67.2 90.5 67.2 88.5 57.7 88.5 57.7 97.1 67.3 97.1 67.3 95.1 60.3 95.1 60.3 93.6"/>
      <path class="cls-2" d="M76.1,94.9c-.4.2-.6.2-2.6.2s-2.7-.2-2.7-2.2,0-1.7.4-2c.3-.3.7-.3,2.8-.3s2.4,0,2.5,1h2.5v-.3c0-1.3-.3-2-1-2.4-.7-.4-1.4-.4-4.6-.4s-3.2.1-4,.6c-.9.5-1.2,1.3-1.2,3.6s.2,3.4,1.1,4c.7.4,1.5.6,3.9.6s2.7,0,3.3,0c1.3,0,2-.4,2.4-1.2.2-.4.2-.8.2-2.1h-2.5c0,.6-.1.9-.5,1Z"/>
      <polygon class="cls-2" points="83.6 97.1 86.2 97.1 86.2 90.6 83.6 92 83.6 97.1"/>
      <rect class="cls-2" x="79.8" y="88.5" width="10.2" height="2.1"/>
    </g>
    <g>
      <path class="cls-2" d="M21,74.7c1.5.3,2.3,1.1,2.5,2.6,0,.4,0,1.2,0,2.4,0,2.4-.3,3.3-1.1,4-.6.5-1.4.7-2.8.8-.5,0-1.8,0-2.8,0-2.3,0-3.5,0-4.1-.2-1.1-.2-1.7-.6-2.1-1.3-.4-.7-.5-1.4-.5-3.6s0-2.1.2-2.7c.3-1,.9-1.6,2-1.9.8-.2,1.7-.3,4.3-.3s3.7,0,4.4.1ZM13.7,77.3c-.4.3-.5.8-.5,2.2s.1,2,.5,2.3c.4.3.9.4,3.1.4s3.1,0,3.4-.6c.3-.4.4-.9.4-2.2,0-2.5,0-2.5-3.7-2.5s-2.8,0-3.2.4Z"/>
      <path class="cls-2" d="M25,74.6h4.8l5.9,7.5v-7.5c0,0,2.8,0,2.8,0v9.8h-4.8l-5.9-7.4v7.4c0,0-2.8,0-2.8,0v-9.8Z"/>
      <path class="cls-2" d="M51,74.6v2.2h-7.9v1.7h7.5v1.9h-7.5v1.7h8v2.2h-11v-9.8h10.9Z"/>
      <path class="cls-2" d="M56.9,77h-4.4v-2.4h11.7v2.4h-4.4v7.4h-3v-7.4Z"/>
      <path class="cls-2" d="M67.8,74.6h4l5.4,9.8h-3.3l-1-1.8h-6.3l-.9,1.8h-3.4l5.5-9.8ZM71.9,80.6l-2.1-3.9-2.1,3.9h4.2Z"/>
      <path class="cls-2" d="M77.7,74.6h7.5c1.9,0,2.4,0,3,.4,1,.5,1.4,1.4,1.4,3.2s-.3,2.8-1.1,3.3c-.6.4-1.2.5-2.9.5h-4.8v2.4h-3v-9.8ZM85,79.6c1.2,0,1.6-.3,1.6-1.2s-.3-1.4-1.6-1.4h-4.3v2.6h4.3Z"/>
    </g>
  </g>
  <g>
    <g>
      <path class="cls-2" d="M34.8,57.7c11.1,6.8,25.5,5.4,35.4-4,11.7-11.2,12.1-29.8.9-41.5,0,0-.1,0-.2-.1-.1-.1-.3-.2-.4-.4-.3-.2-.6-.3-1-.3s-.8.1-1.1.4l-.3.3-3,2.9s0,0,0,0l-5.7,5.5-2.1-4.7s-.5-.5-1-.5c-.5,0-.8.3-.8.3-.2.2-.3.5-.3.6l.2,8.8c0,.2,0,1.3.5,1.9h0s0,0,0,0c0,0,0,0,0,0h0c.6.5,1.7.6,1.9.6l8.8.6c.1,0,.4,0,.6-.2,0,0,.3-.3.4-.8,0-.5-.5-1-.5-1l-4.6-2.3,5.7-5.5c2.3,2.9,3.9,6.3,4.6,9.8,1.5,7.5-.7,15.7-6.7,21.4-6.7,6.4-16.3,8-24.5,4.8-.2,0-.4-.1-.5-.2-.8-.3-1.3-.6-2.1-1s-.3,0-.4,0c-.3,0-.4.2-.4.2l-3.6,3.5s-.3.2-.2.6.4.6.4.6"/>
      <path class="cls-1" d="M49.7,50.5c-.4,0-.9,0-1.4,0v-.9c-.2-2.4-.4-5.2-.5-7.4-.2-6.8-5.6-7.7-7.2-7.8l-8.4-.7c0-.4,0-.8,0-1.2s0-.7,0-1l8.4-.4c1.7,0,7.1-.8,7.6-7.5.2-2.2.4-5.2.7-7.8v-.7c.5,0,1,0,1.4,0s.6,0,.8,0v.9c.2,2.6.4,5.5.4,7.7.2,6.8,5.6,7.7,7.2,7.8l9,.7c0,.3,0,.7,0,1s0,.8,0,1.3l-8.9.4c-1.7,0-7.1.8-7.6,7.6-.2,2.2-.4,4.9-.6,7.2v1c-.4,0-.6,0-.9,0Z"/>
    </g>
    <path class="cls-2" d="M49.8,13.6l.3-.3c-.1,0-.2.2-.3.3Z"/>
    <path class="cls-2" d="M49.7,13.3c.1.1.3.2.4.4-.1-.1-.2-.3-.4-.4Z"/>
    <path class="cls-2" d="M44.2,49.4l-.2-8.8c0-.2,0-1.3-.5-1.9h0s0,0,0,0c0,0,0,0,0,0h0c-.6-.5-1.7-.6-1.9-.6l-8.8-.6c-.1,0-.4,0-.6.2,0,0-.3.3-.4.8,0,.5.5,1,.5,1l4.6,2.3-2.1,2h0c0,0,0,0,0,0l-2.8,2.7c-2.3-2.9-3.9-6.3-4.6-9.8-1.5-7.5.7-15.7,6.7-21.4,6.7-6.4,16.3-8,24.5-4.8.2,0,.4.1.5.2.8.3,1.3.6,2.1,1,0,0,.3,0,.4,0,.3,0,.4-.2.4-.2l3.6-3.5s.3-.2.2-.6c0-.4-.4-.6-.4-.6C54.3.3,39.8,1.7,30,11.1c-11.7,11.2-12.1,29.8-.9,41.5,0,0,.1,0,.1.1.1.1.3.2.4.4.3.2.6.3,1,.3.4,0,.8-.1,1.1-.4l1.8-1.7,1.5-1.5s0,0,0,0l2-2h0s.8-.8.8-.8l2.1-2,2.1,4.7s.5.5,1,.5c.5,0,.8-.3.8-.3.2-.2.3-.5.3-.6Z"/>
  </g>
</svg>