<?xml version="1.0" encoding="UTF-8"?>
<svg id="Layer_1" data-name="Layer 1" xmlns="http://www.w3.org/2000/svg" version="1.1" viewBox="0 0 100 100">
  <defs>
    <style>
      .cls-1 {
        fill: #141111;
        stroke-width: 0px;
      }
    </style>
  </defs>
  <g>
    <path class="cls-1" d="M103.5,2.5l-26.6,26.6-8.3,7.9,6.7,3.3s.7.8.7,1.5c0,.7-.5,1.1-.5,1.1-.3.3-.7.4-.9.3l-12.7-.8c-.3,0-1.9,0-2.7-.8h0s0,0,0,0c0,0,0,0,0,0h0c-.7-.9-.7-2.4-.7-2.8l-.3-12.8c0-.2,0-.5.4-.8,0,0,.5-.4,1.2-.5.7,0,1.5.7,1.5.7l3,6.8,8.2-7.9s0,0,0,0L98.7-2l4.8,4.5Z"/>
    <path class="cls-1" d="M.9,102l26.9-26.3,8-8.2,3.2,6.7s.8.7,1.5.7c.7,0,1.2-.5,1.2-.5.3-.3.4-.7.3-.9l-.7-12.7c0-.3,0-1.9-.8-2.7h0s0,0,0,0c0,0,0,0,0,0h0c-.9-.7-2.4-.7-2.8-.7l-12.8-.4c-.2,0-.5,0-.8.4,0,0-.5.5-.5,1.2,0,.7.7,1.5.7,1.5l6.8,3.1-8,8.2s0,0,0,0L-3.5,97.1l4.4,4.9Z"/>
    <path class="cls-1" d="M49.9,75.8c-.6,0-1.3,0-2-.1v-1.3c-.3-3.5-.6-7.5-.7-10.7-.3-9.8-8.1-11.2-10.5-11.3l-12.2-1c0-.6,0-1.2,0-1.8s0-1,0-1.5l12.1-.6c2.5,0,10.3-1.1,11-10.9.2-3.2.6-7.5,1-11.3v-1c.8,0,1.4,0,2.1,0s.8,0,1.2,0v1.2c.3,3.7.5,7.9.6,11.1.3,9.8,8.1,11.1,10.5,11.3l13,1.1c0,.5,0,.9,0,1.4s0,1.2-.1,1.8l-12.9.6c-2.5,0-10.3,1.1-11,10.9-.2,3.2-.6,7-.9,10.5v1.5c-.5,0-.9,0-1.3,0Z"/>
  </g>
  <path class="cls-1" d="M50.1,22.6l.4-.4c-.2.1-.3.3-.4.4Z"/>
  <path class="cls-1" d="M50,22c.2.2.4.3.6.5-.2-.2-.3-.4-.6-.5Z"/>
</svg>