<?xml version="1.0" encoding="UTF-8"?>
<svg id="Layer_1" data-name="Layer 1" xmlns="http://www.w3.org/2000/svg" version="1.1" viewBox="0 0 100 100">
  <defs>
    <style>
      .cls-1 {
        fill: #dfe5f4;
        stroke-width: 0px;
      }
    </style>
  </defs>
  <g>
    <g>
      <path class="cls-1" d="M45.5,45.7c.2-.2.5-.3.7-.5-.2.2-.5.4-.7.5Z"/>
      <path class="cls-1" d="M52.5,35.1c0,.7,0,1.3,0,2,0-.6,0-1.3,0-2Z"/>
      <path class="cls-1" d="M52.2,61c-.1,1.3-.2,2.6-.4,4,.1-1.3.2-2.7.4-4Z"/>
      <path class="cls-1" d="M42.3,46.9c.4,0,.8-.2,1.2-.3-.4.1-.8.2-1.2.3Z"/>
      <path class="cls-1" d="M70.1,49.3c0-.4,0-.7,0-1.1l-9.6-.8,9.6.8c0,.4,0,.7,0,1.1Z"/>
      <path class="cls-1" d="M51.5,68.1v-1.1c.2-.6.2-1.3.3-2,0,.7-.1,1.3-.2,2v1.1Z"/>
      <path class="cls-1" d="M54.1,54.1c.5-.7,1.2-1.2,1.8-1.7-.7.4-1.3,1-1.8,1.7Z"/>
      <path class="cls-1" d="M43.5,46.6c.4-.1.9-.3,1.3-.5-.4.2-.9.4-1.3.5Z"/>
      <path class="cls-1" d="M57.2,51.7c-.4.2-.9.4-1.3.7.4-.3.9-.5,1.3-.7Z"/>
      <path class="cls-1" d="M50.8,68.1c.2,0,.5,0,.7,0-.3,0-.6,0-.9,0,0,0,.1,0,.2,0Z"/>
      <path class="cls-1" d="M49.1,39c.1-1.5.3-3.3.4-5.1-.2,1.8-.3,3.6-.4,5.1-.2,3.1-1.4,5.1-2.9,6.2,1.4-1.2,2.7-3.1,2.9-6.2Z"/>
      <path class="cls-1" d="M53.5,54.8c-.3.5-.6,1.2-.8,1.9.2-.7.5-1.3.8-1.9Z"/>
      <path class="cls-1" d="M53,41.5c.4,1.4,1,2.5,1.8,3.4-.8-.8-1.4-1.9-1.8-3.4Z"/>
      <path class="cls-1" d="M40.9,47.1l-9,.4c0,.4,0,.7,0,1.1,0-.4,0-.7,0-1.1l9-.4Z"/>
      <path class="cls-1" d="M53,41.5c-.2-.7-.3-1.5-.3-2.4,0-.6,0-1.2,0-1.9,0,.7,0,1.3,0,1.9,0,.9.1,1.7.3,2.4Z"/>
      <path class="cls-1" d="M52.5,34c0,.4,0,.8,0,1.1,0-.4,0-.7,0-1.1Z"/>
      <path class="cls-1" d="M51,29.8c-.4,0-.7,0-1.1,0,.5,0,1,0,1.5,0-.1,0-.2,0-.3,0Z"/>
      <path class="cls-1" d="M49.5,33.9c0-1.1.2-2.2.3-3.2,0,1-.2,2.2-.3,3.2Z"/>
      <path class="cls-1" d="M70.1,48.2l-9.6-.8c-1.1,0-3.8-.5-5.7-2.6-.8-.8-1.4-1.9-1.8-3.4-.2-.7-.3-1.5-.3-2.4,0-.6,0-1.2,0-1.9,0-.6,0-1.3,0-2,0-.4,0-.7,0-1.1,0-1.1-.1-2.2-.2-3.2v-.9c-.3,0-.6,0-.9,0-.5,0-1,0-1.5,0v.8c-.2,1-.3,2.2-.4,3.2-.2,1.8-.3,3.6-.4,5.1-.2,3.1-1.4,5.1-2.9,6.2-.2.2-.5.4-.7.5-.2.1-.4.3-.7.4-.4.2-.9.4-1.3.5s-.8.2-1.2.3c-.6,0-1,.1-1.4.1l-9,.4c0,.4,0,.7,0,1.1,0,.4,0,.8,0,1.3l9,.8c1.8.1,7.5,1.1,7.8,8.4,0,2.4.3,5.3.4,8v.9c.5,0,1,0,1.5,0,.3,0,.6,0,.9,0v-1.1c.2-.6.2-1.3.3-2,.1-1.3.2-2.7.4-4,0-.6.1-1.3.1-1.8,0-.9.2-1.7.4-2.4s.5-1.3.8-1.9c.2-.3.3-.5.5-.8.5-.7,1.2-1.2,1.8-1.7.4-.3.9-.5,1.3-.7,1.3-.5,2.6-.6,3.2-.7l9.6-.4c0-.5,0-.9,0-1.3,0-.4,0-.7,0-1.1ZM54.6,50.4c-1.5.9-3.2,2.6-4.1,5.4-.8-2.9-2.4-4.6-3.9-5.6-.9-.6-1.9-1.1-2.7-1.4.9-.3,1.9-.6,2.8-1.2,1.5-.9,3.2-2.6,4.1-5.4.8,2.9,2.4,4.6,3.9,5.6.9.6,1.9,1.1,2.7,1.4-.9.3-1.9.6-2.8,1.2Z"/>
    </g>
    <g>
      <path class="cls-1" d="M29.6,71.1c-.3,0-.6,0-.8-.3,0,0,0,0-.1-.1,0,0-.2-.1-.2-.2,0,0,0,0,0,0,0,0,0,0,0,0-5.7-6-8.8-13.9-8.6-22.2.2-8.3,3.6-16,9.6-21.8,5.9-5.6,13.5-8.7,21.5-8.7s11.1,1.5,15.9,4.5h0s.2.1.2.3c0,.2,0,.3,0,.3h0s0,0,0,0l-3.9,3.8h0s0,0-.1,0h0c0,0-.2,0-.3,0-.9-.5-1.4-.8-2.3-1.1h0c0,0-.2,0-.2,0-.1,0-.2,0-.3-.1-2.9-1.1-6-1.7-9.2-1.7-6.5,0-12.7,2.5-17.4,7-3.1,3-5.4,6.8-6.7,10.9-1.2,4-1.4,8.3-.6,12.4.8,3.9,2.5,7.6,5,10.7l.3.3,3-2.9.3-.2,2.7-2.6-5.4-2.6c-.1-.2-.4-.5-.4-.8,0-.4.3-.6.3-.6.1-.1.2-.1.3-.1s0,0,0,0h0s9.5.6,9.5.6h0c1,0,1.5.3,1.8.5h0s0,0,0,0c.2.3.4.8.4,1.8h0s.2,9.5.2,9.5h0c0,0,0,.2-.2.3h0s-.3.2-.6.3h0c-.2,0-.6-.2-.8-.4l-2.4-5.5-3.2,3.1-.3.3-2.5,2.4h0s-1.3,1.3-1.3,1.3l-1.9,1.8c-.3.2-.6.3-.9.3h0Z"/>
      <path class="cls-1" d="M50.3,80.1c-5.6,0-11.1-1.6-15.9-4.5h0s-.2-.1-.2-.3c0-.2,0-.3,0-.3h0s3.9-3.8,3.9-3.8h0s0,0,.1,0h0c0,0,.2,0,.3,0,.9.5,1.4.8,2.3,1.1h0c0,0,.2,0,.2,0,.1,0,.2,0,.3.1,2.9,1.1,6,1.7,9.2,1.7,6.5,0,12.7-2.5,17.4-7,3.1-3,5.4-6.8,6.7-10.9,1.2-4,1.4-8.3.6-12.4-.8-3.9-2.5-7.6-5-10.7l-.3-.3-3,2.9-.3.3-2.7,2.6,5.4,2.6c.1.2.4.5.4.8,0,.4-.3.6-.3.6-.1.1-.2.1-.3.1s0,0,0,0h0s-9.5-.6-9.5-.6h0c-1,0-1.5-.3-1.8-.5h0s0,0,0,0c-.2-.3-.4-.8-.4-1.8h0s-.2-9.5-.2-9.5h0c0,0,0-.2.2-.3h0s.3-.2.6-.3h0c.2,0,.6.2.8.4l2.4,5.5,3.2-3.1.3-.2,2.5-2.4h0s1.3-1.3,1.3-1.3l1.9-1.8c.3-.2.6-.3.9-.3h0c.3,0,.6,0,.8.3,0,0,0,0,.1.1,0,0,.2.1.2.2,0,0,0,0,0,0,0,0,0,0,0,0,5.7,6,8.8,13.9,8.6,22.2-.2,8.3-3.6,16-9.6,21.8-5.9,5.6-13.5,8.7-21.5,8.7h0Z"/>
    </g>
  </g>
  <path class="cls-1" d="M78.6,100H21.4C9.6,100,0,90.4,0,78.6V21.4C0,9.6,9.6,0,21.4,0h57.2c11.8,0,21.4,9.6,21.4,21.4v57.2c0,11.8-9.6,21.4-21.4,21.4ZM21.4,4C11.8,4,4,11.8,4,21.4v57.2c0,9.6,7.8,17.4,17.4,17.4h57.2c9.6,0,17.4-7.8,17.4-17.4V21.4c0-9.6-7.8-17.4-17.4-17.4H21.4Z"/>
</svg>