<?xml version="1.0" encoding="UTF-8"?>
<svg id="Layer_1" data-name="Layer 1" xmlns="http://www.w3.org/2000/svg" version="1.1" viewBox="0 0 100 100">
  <defs>
    <style>
      .cls-1 {
        fill: #0b0b0b;
        stroke-width: 0px;
      }

      .cls-2 {
        opacity: .2;
      }
    </style>
  </defs>
  <g class="cls-2">
    <g>
      <path class="cls-1" d="M37.3,70.3c9.3,5.6,21.3,4.5,29.5-3.3,9.8-9.4,10.1-24.9.7-34.6,0,0,0,0-.1-.1-.1-.1-.2-.2-.3-.3-.2-.2-.5-.3-.8-.3s-.7.1-.9.3l-.2.2-2.5,2.4s0,0,0,0l-4.8,4.6-1.7-3.9s-.4-.4-.9-.4c-.4,0-.7.3-.7.3-.2.2-.2.4-.2.5l.2,7.4c0,.2,0,1.1.4,1.6h0s0,0,0,0c0,0,0,0,0,0h0c.5.4,1.4.5,1.6.5l7.3.5c.1,0,.3,0,.5-.2,0,0,.3-.3.3-.7,0-.4-.4-.9-.4-.9l-3.9-1.9,4.8-4.6c2,2.5,3.2,5.3,3.8,8.2,1.3,6.3-.6,13.1-5.6,17.8-5.6,5.4-13.6,6.7-20.4,4-.1,0-.3-.1-.4-.2-.7-.3-1.1-.5-1.7-.9s-.2,0-.4,0c-.2,0-.3.2-.3.2l-3,2.9s-.2.2-.2.5.3.5.3.5"/>
      <path class="cls-1" d="M49.6,64.2c-.4,0-.8,0-1.1,0v-.7c-.2-2-.3-4.3-.4-6.2-.2-5.7-4.7-6.4-6-6.5l-7-.6c0-.4,0-.7,0-1s0-.6,0-.9l7-.3c1.4,0,5.9-.6,6.3-6.3.1-1.8.4-4.3.6-6.5v-.6c.4,0,.8,0,1.2,0s.5,0,.7,0v.7c.2,2.1.3,4.6.4,6.4.2,5.7,4.7,6.4,6,6.5l7.5.6c0,.3,0,.5,0,.8s0,.7,0,1l-7.5.3c-1.4,0-5.9.6-6.3,6.3-.1,1.8-.3,4.1-.5,6v.9c-.3,0-.5,0-.7,0Z"/>
    </g>
    <path class="cls-1" d="M49.7,33.5l.2-.2c0,0-.2.1-.2.2Z"/>
    <path class="cls-1" d="M49.7,33.2c.1.1.2.2.3.3,0-.1-.2-.2-.3-.3Z"/>
    <path class="cls-1" d="M45,63.4l-.2-7.4c0-.2,0-1.1-.4-1.6h0s0,0,0,0c0,0,0,0,0,0h0c-.5-.4-1.4-.5-1.6-.5l-7.3-.5c-.1,0-.3,0-.5.2,0,0-.3.3-.3.7,0,.4.4.9.4.9l3.9,1.9-1.7,1.7h0c0,0,0,0,0,0l-2.3,2.2c-2-2.5-3.2-5.3-3.8-8.2-1.3-6.3.6-13.1,5.6-17.8,5.6-5.4,13.6-6.7,20.4-4,.1,0,.3.1.4.2.7.3,1.1.5,1.7.9,0,0,.2,0,.4,0,.2,0,.3-.2.3-.2l3-2.9s.2-.2.2-.5c0-.3-.3-.5-.3-.5-9.3-5.6-21.3-4.5-29.5,3.3-9.8,9.4-10.1,24.9-.7,34.6,0,0,0,0,.1.1.1.1.2.2.3.3.2.2.5.3.8.3.3,0,.7-.1.9-.3l1.5-1.4,1.3-1.2s0,0,0,0l1.7-1.6h0s.7-.7.7-.7l1.7-1.7,1.7,3.9s.4.4.9.4c.4,0,.7-.3.7-.3.2-.2.2-.4.2-.5Z"/>
  </g>
</svg>