<?xml version="1.0" encoding="UTF-8"?>
<svg id="Layer_1" data-name="Layer 1" xmlns="http://www.w3.org/2000/svg" version="1.1" viewBox="0 0 100 100">
  <defs>
    <style>
      .cls-1 {
        fill: #fff;
        stroke-width: 0px;
      }
    </style>
  </defs>
  <g>
    <path class="cls-1" d="M36.7,51.8c-.3.1-.5.1-2,.1s-2.1-.1-2.1-1.7,0-1.3.3-1.6c.2-.2.5-.3,2.2-.3s1.9,0,1.9.8h1.9v-.2c0-1-.2-1.6-.8-1.8-.6-.3-1.1-.3-3.6-.3s-2.5,0-3.1.4c-.7.4-.9,1-.9,2.8s.2,2.6.8,3.1c.5.3,1.2.4,3.1.4s2.1,0,2.5,0c1,0,1.6-.3,1.8-.9.1-.3.2-.6.2-1.6h-2c0,.5-.1.7-.4.8Z"/>
    <path class="cls-1" d="M47.2,46.9c-.5,0-1.1,0-3,0s-2.4,0-2.9.2c-.7.2-1.1.6-1.3,1.3-.1.4-.1.7-.1,1.8s0,1.9.3,2.4c.2.5.7.8,1.4.9.4,0,1.2.1,2.8.1s1.5,0,1.9,0c1,0,1.5-.2,1.9-.5.6-.5.7-1.1.7-2.7s0-1.3,0-1.6c-.1-1.1-.6-1.6-1.7-1.8ZM46.7,51.6c-.2.3-.6.4-2.3.4s-1.8,0-2.1-.3c-.2-.2-.3-.6-.3-1.5s0-1.3.3-1.5c.3-.2.7-.2,2.1-.2,2.5,0,2.5,0,2.5,1.7s0,1.2-.2,1.5Z"/>
    <polygon class="cls-1" points="64.5 51.9 60.5 46.9 57.1 46.9 57.1 51.9 53.1 46.9 49.9 46.9 49.9 53.5 51.9 53.5 51.8 48.5 55.8 53.5 59 53.5 59 48.3 63.1 53.5 66.4 53.5 66.4 46.9 64.4 46.9 64.5 51.9"/>
    <polygon class="cls-1" points="69.5 50.8 74.5 50.8 74.5 49.5 69.5 49.5 69.5 48.4 74.8 48.4 74.8 46.9 67.5 46.9 67.5 53.5 74.9 53.5 74.9 52 69.5 52 69.5 50.8"/>
    <path class="cls-1" d="M81.7,51.8c-.3.1-.5.1-2,.1s-2.1-.1-2.1-1.7,0-1.3.3-1.6c.2-.2.5-.3,2.2-.3s1.9,0,1.9.8h1.9v-.2c0-1-.2-1.6-.8-1.8-.6-.3-1.1-.3-3.6-.3s-2.5,0-3.1.4c-.7.4-.9,1-.9,2.8s.2,2.6.8,3.1c.5.3,1.2.4,3.1.4s2.1,0,2.5,0c1,0,1.6-.3,1.8-.9.1-.3.2-.6.2-1.6h-2c0,.5-.1.7-.4.8Z"/>
    <polygon class="cls-1" points="87.5 53.5 89.6 53.5 89.6 48.5 87.5 49.6 87.5 53.5"/>
    <rect class="cls-1" x="84.6" y="46.9" width="7.9" height="1.6"/>
  </g>
  <g>
    <path class="cls-1" d="M38,38.5c1,.2,1.5.7,1.7,1.8,0,.3,0,.8,0,1.6,0,1.6-.2,2.2-.7,2.7-.4.3-1,.5-1.9.5-.4,0-1.2,0-1.9,0-1.6,0-2.4,0-2.8-.1-.7-.1-1.2-.4-1.4-.9-.3-.5-.3-1-.3-2.4s0-1.4.1-1.8c.2-.7.6-1.1,1.3-1.3.6-.2,1.2-.2,2.9-.2s2.5,0,3,0ZM33,40.2c-.3.2-.3.5-.3,1.5s0,1.3.3,1.5c.3.2.6.3,2.1.3s2.1,0,2.3-.4c.2-.2.2-.6.2-1.5,0-1.7,0-1.7-2.5-1.7s-1.9,0-2.1.2Z"/>
    <path class="cls-1" d="M40.7,38.4h3.2l4,5v-5s1.9,0,1.9,0v6.6h-3.2l-3.9-5v5s-1.9,0-1.9,0v-6.6Z"/>
    <path class="cls-1" d="M58.2,38.4v1.5h-5.3v1.1h5v1.3h-5v1.2h5.4v1.5h-7.4v-6.6h7.3Z"/>
    <path class="cls-1" d="M62.1,40.1h-2.9v-1.6h7.9v1.6h-2.9v5h-2v-5Z"/>
    <path class="cls-1" d="M69.5,38.4h2.7l3.6,6.6h-2.2l-.7-1.2h-4.3l-.6,1.2h-2.3l3.7-6.6ZM72.3,42.5l-1.4-2.6-1.4,2.6h2.8Z"/>
    <path class="cls-1" d="M76.1,38.4h5.1c1.3,0,1.6,0,2,.2.7.3.9.9.9,2.2s-.2,1.9-.8,2.2c-.4.2-.8.3-2,.3h-3.2v1.6h-2v-6.6ZM81.1,41.8c.8,0,1.1-.2,1.1-.8s-.2-1-1.1-1h-2.9v1.8h2.9Z"/>
  </g>
  <path class="cls-1" d="M12.1,53.4l-6.8,6.9h18.6s.6,0,1-.1.7-.5.7-.5l3.6-3.6c.4-.4.8-.3.8-.3l58.8.7s1.2,0,1.4,0c.2-.2.6-.6.6-.6l4.5-7.3,1.4-2.6s.6-1.3-.7-1.5h-6.5c0,0-4.9-7.4-4.9-7.4,0,0-.4-.5-.8-.4l-53.6-.2s-.7,0-1,.1-.3.1-.5.3c-.5.6-3.7,4-3.7,4v-2.2c0,0,3-3.1,3-3.1,0,0,.7-.6,1.9-.6s53.8,0,53.8,0c0,0,1.1,0,1.5.4s.4.6.9,1.2c1.2,1.7,3.4,4.8,4.6,6.5h6.3c0,0,1.2-.2,1.8,1s.2,1.8-.5,3l-1.7,3.2-5.2,8.7s-.2.4-.4.6c-.3.2-.8.3-.8.3l-58.6-.7c-.7,0-1.1.4-1.1.4l-3.5,3.3s-.7.7-1,.8-1.1,0-1.1,0H2.9s-.8.3-1.2-.8l-.4-1.1c-.3-.7.3-1.1.3-1.1l9.5-8.8"/>
  <g>
    <path class="cls-1" d="M13.4,54.9c3.9,2.3,9,1.7,12.3-1.6,4-4,4-10.5,0-14.5,0,0,0,0,0,0,0,0,0,0-.1-.1,0,0-.2-.1-.3-.1s-.3,0-.4.1h0c0,0-1,1.1-1,1.1,0,0,0,0,0,0l-2,1.9-.8-1.6s-.2-.2-.4-.2c-.2,0-.3.1-.3.1,0,0,0,.2,0,.2v3.1c.1,0,.1.4.3.7h0s0,0,0,0c0,0,0,0,0,0h0c.2.2.6.2.7.2h3.1c0,.1.1.1.2,0,0,0,.1-.1.1-.3,0-.2-.2-.4-.2-.4l-1.6-.8,2-2c.8,1,1.4,2.2,1.7,3.4.6,2.6-.2,5.5-2.2,7.5-2.3,2.3-5.7,2.9-8.5,1.8,0,0-.1,0-.2,0-.3-.1-.5-.2-.7-.3s0,0-.2,0c-.1,0-.1,0-.1,0l-1.2,1.2s0,0,0,.2.1.2.1.2"/>
    <path class="cls-1" d="M23.6,37.1c-3.9-2.3-9-1.7-12.3,1.6-4,4-4,10.5,0,14.5,0,0,0,0,0,0,0,0,0,0,.1.1,0,0,.2.1.3.1s.3,0,.4-.1h0c0,0,1-1.1,1-1.1,0,0,0,0,0,0l2-1.9.8,1.6s.2.2.4.2c.2,0,.3-.1.3-.1,0,0,0-.2,0-.2v-3.1c-.1,0-.1-.4-.3-.7h0s0,0,0,0c0,0,0,0,0,0h0c-.2-.2-.6-.2-.7-.2h-3.1c0-.1-.1-.1-.2,0,0,0-.1.1-.1.3,0,.2.2.4.2.4l1.6.8-2,2c-.8-1-1.4-2.2-1.7-3.4-.6-2.6.2-5.5,2.2-7.5,2.3-2.3,5.7-2.9,8.5-1.8,0,0,.1,0,.2,0,.3.1.5.2.7.3s0,0,.2,0c.1,0,.1,0,.1,0l1.2-1.2s0,0,0-.2-.1-.2-.1-.2"/>
    <path class="cls-1" d="M24.9,45.5l-3.3-.2c-.1,0-2.3,0-2.4-2.5,0-.9-.1-2.1-.2-3.1-.2,0-.3,0-.5,0-.2,0-.4,0-.7,0,0,1-.2,2.2-.2,3.1-.1,2.5-2.3,2.5-2.4,2.5l-3.1.2c0,.2,0,.4,0,.5s0,.4,0,.6l3.1.2c.1,0,2.3,0,2.4,2.5,0,.9.2,2.1.2,3.1.2,0,.4,0,.6,0s.3,0,.4,0c0-.9.2-2.1.2-3.1.1-2.5,2.3-2.5,2.4-2.5l3.3-.2c0-.2,0-.4,0-.6s0-.3,0-.5Z"/>
  </g>
</svg>