<?xml version="1.0" encoding="UTF-8"?>
<svg id="Layer_1" data-name="Layer 1" xmlns="http://www.w3.org/2000/svg" version="1.1" viewBox="0 0 100 100">
  <defs>
    <style>
      .cls-1 {
        fill: #dee4f3;
      }

      .cls-1, .cls-2, .cls-3 {
        stroke-width: 0px;
      }

      .cls-2 {
        fill: none;
      }

      .cls-3 {
        fill: #dfe5f4;
      }
    </style>
  </defs>
  <path class="cls-3" d="M78.6,100H21.4c-11.8,0-21.4-9.6-21.4-21.4V21.4C0,9.6,9.6,0,21.4,0h57.2c11.8,0,21.4,9.6,21.4,21.4v57.2c0,11.8-9.6,21.4-21.4,21.4ZM21.4,4c-9.6,0-17.4,7.8-17.4,17.4v57.2c0,9.6,7.8,17.4,17.4,17.4h57.2c9.6,0,17.4-7.8,17.4-17.4V21.4c0-9.6-7.8-17.4-17.4-17.4H21.4Z"/>
  <g>
    <path class="cls-2" d="M43.8,50c0,3.4,2.8,6.2,6.2,6.2s6.2-2.8,6.2-6.2-2.8-6.2-6.2-6.2-6.2,2.8-6.2,6.2Z"/>
    <path class="cls-2" d="M50,59.6c-2.7,0-5.1-1.1-6.8-2.8h-21c3.1,12.8,14.5,21.9,27.8,21.9s24.7-9.1,27.8-21.9h-21c-1.7,1.8-4.1,2.8-6.8,2.8Z"/>
    <path class="cls-2" d="M68.7,28.3c-5.2-4.5-11.8-7-18.7-7s-13.5,2.5-18.7,7c-4.8,4.1-8,9.7-9.3,15.8h20.4c1.8-2.3,4.5-3.7,7.6-3.7s5.8,1.5,7.6,3.7h20.4c-1.3-6.1-4.5-11.7-9.3-15.8ZM47.9,32.8c-.2,0-.5,0-.7,0-3.1.5-5.7,2.5-6.9,5.2l-11-.3c2.1-6.3,7.6-11.1,14.6-12.1,1.9-.3,3.8-.2,5.6,0l-1.7,7.1Z"/>
    <path class="cls-1" d="M50,42.9c-.2,0-.4,0-.7,0,.2,0,.4,0,.7,0h0Z"/>
    <path class="cls-1" d="M81.1,50c0-1.1,0-2.3-.2-3.4h0l-.2-1.4s0,0,0,0l-.2-1h0c-1.3-6.8-4.9-13.1-10.2-17.7-5.6-4.9-12.9-7.6-20.3-7.6s-14.7,2.7-20.3,7.6c-5.3,4.6-8.9,10.8-10.2,17.7h0l-.2,1-.2,1.4h0c-.1,1.1-.2,2.3-.2,3.4s.1,2.9.3,4.3h0l.3,1.5.2,1h0c3.1,14.2,15.7,24.3,30.3,24.3s27.2-10.2,30.3-24.3h0l.2-1s0,0,0,0l.3-1.5h0c.2-1.4.3-2.9.3-4.3ZM50,78.6c-13.3,0-24.7-9.1-27.8-21.9h21c1.7,1.8,4.1,2.8,6.8,2.8s5.1-1.1,6.8-2.8h21c-3.1,12.8-14.5,21.9-27.8,21.9ZM50,43.8c3.4,0,6.2,2.8,6.2,6.2s-2.8,6.2-6.2,6.2-6.2-2.8-6.2-6.2,2.8-6.2,6.2-6.2ZM57.6,44.1c-1.8-2.3-4.5-3.7-7.6-3.7s-5.8,1.5-7.6,3.7h-20.4c1.3-6.1,4.5-11.7,9.3-15.8,5.2-4.5,11.8-7,18.7-7s13.5,2.5,18.7,7c4.8,4.1,8,9.7,9.3,15.8h-20.4Z"/>
    <path class="cls-1" d="M50,57.1s0,0,0,0,0,0,0,0c0,0,0,0,0,0s0,0,0,0Z"/>
    <path class="cls-1" d="M44,25.6c-7,1-12.5,5.9-14.6,12.1l11,.3c1.2-2.7,3.7-4.7,6.9-5.2.2,0,.5,0,.7,0l1.7-7.1c-1.8-.3-3.7-.3-5.6,0Z"/>
  </g>
</svg>