<?xml version="1.0" encoding="UTF-8"?>
<svg id="Layer_1" data-name="Layer 1" xmlns="http://www.w3.org/2000/svg" version="1.1" viewBox="0 0 100 100">
  <defs>
    <style>
      .cls-1 {
        fill: #dee4f3;
      }

      .cls-1, .cls-2, .cls-3 {
        stroke-width: 0px;
      }

      .cls-4 {
        fill: none;
        stroke: #dee4f3;
        stroke-miterlimit: 10;
        stroke-width: 3px;
      }

      .cls-2 {
        fill: #dfe5f4;
      }

      .cls-3 {
        fill: #fff;
      }
    </style>
  </defs>
  <path class="cls-2" d="M78.6,100H21.4c-11.8,0-21.4-9.6-21.4-21.4V21.4C0,9.6,9.6,0,21.4,0h57.2c11.8,0,21.4,9.6,21.4,21.4v57.2c0,11.8-9.6,21.4-21.4,21.4ZM21.4,4c-9.6,0-17.4,7.8-17.4,17.4v57.2c0,9.6,7.8,17.4,17.4,17.4h57.2c9.6,0,17.4-7.8,17.4-17.4V21.4c0-9.6-7.8-17.4-17.4-17.4H21.4Z"/>
  <path class="cls-4" d="M73,31.8h-7c-3.5-4.2-4.7-8.7-7.8-8.7h-17.9c-3.1,0-4.3,4.5-7.8,8.7h-6.3c-6,0-10.9,4.9-10.9,10.9v17.5c0,6,4.9,10.9,10.9,10.9h46.9c6,0,10.9-4.9,10.9-10.9v-17.5c0-6-4.9-10.9-10.9-10.9Z"/>
  <g>
    <path class="cls-1" d="M45.8,42.8h1.7c-.3-2-1.5-3.2-3.1-3.4-1.2-.1-3.3.8-2.4,2.1.9,1.5,3.8,1.2,3.8,1.2Z"/>
    <path class="cls-1" d="M49.5,31.8c-9.4,0-17.1,7.7-17.1,17.1s7.7,17.1,17.1,17.1,17.1-7.7,17.1-17.1-7.7-17.1-17.1-17.1ZM44.5,38.4c2.6.2,4.4,2.7,4.4,5.5h-2s-4.8.3-6.3-2c-1.4-2.2,2-3.6,3.9-3.4ZM49,57.6h-8.3c-2.3,0-4.2-1.9-4.2-4.2v-1.8h12.4v6ZM49,50.7h-12.4v-1.8c0-2.3,1.9-4.2,4.2-4.2h8.3v6ZM54.5,38.4c1.9-.2,5.3,1.3,3.9,3.4-1.5,2.4-6.3,2-6.3,2h-2c0-2.7,1.7-5.2,4.4-5.5ZM62.5,53.5c0,2.3-1.9,4.2-4.2,4.2h-8.3v-6h12.4v1.8ZM62.5,50.7h-12.4v-6h8.3c2.3,0,4.2,1.9,4.2,4.2v1.8Z"/>
    <path class="cls-1" d="M57.1,41.6c.8-1.3-1.2-2.2-2.4-2.1-1.6.1-2.8,1.3-3.1,3.4h1.7s2.9.2,3.8-1.2Z"/>
    <path class="cls-3" d="M58.3,44.6h-8.3v6h12.4v-1.8c0-2.3-1.9-4.2-4.2-4.2ZM62,50.2h-11.6v-5.1h7.8c2.1,0,3.8,1.7,3.8,3.8v1.4Z"/>
    <path class="cls-3" d="M36.6,48.8v1.8h12.4v-6h-8.3c-2.3,0-4.2,1.9-4.2,4.2ZM48.6,50.2h-11.6v-1.4c0-2.1,1.7-3.8,3.8-3.8h7.8v5.1Z"/>
    <path class="cls-3" d="M36.6,53.5c0,2.3,1.9,4.2,4.2,4.2h8.3v-6h-12.4v1.8ZM37,52.1h11.6v5.1h-7.8c-2.1,0-3.8-1.7-3.8-3.8v-1.4Z"/>
    <path class="cls-3" d="M50,57.6h8.3c2.3,0,4.2-1.9,4.2-4.2v-1.8h-12.4v6ZM50.5,52.1h11.6v1.4c0,2.1-1.7,3.8-3.8,3.8h-7.8v-5.1Z"/>
  </g>
</svg>