<?xml version="1.0" encoding="UTF-8"?>
<svg id="Layer_1" data-name="Layer 1" xmlns="http://www.w3.org/2000/svg" version="1.1" viewBox="0 0 100 100">
  <defs>
    <style>
      .cls-1 {
        fill: #fff;
        stroke: #231f20;
        stroke-miterlimit: 10;
      }

      .cls-2 {
        fill: #70ceef;
        stroke-width: 0px;
      }
    </style>
  </defs>
  <path class="cls-1" d="M-23.4,59.3"/>
  <g>
    <path class="cls-2" d="M75.7,35c3,1.2,6,2.2,8.7,3.7,2.3,1.3,4.7,2.8,6.5,4.7,4.1,4.1,4,9.2,0,13.4-2.9,3.1-6.6,4.9-10.5,6.4-1.5.6-3.1,1.1-4.7,1.6.3,1.6.7,3.2.9,4.8.6,3.9.9,7.9,0,11.8-1.5,6.3-6.4,9.1-12.6,7.2-4.3-1.3-7.8-3.8-11.2-6.6-.9-.8-1.8-1.6-2.7-2.4-2,1.6-3.8,3.3-5.8,4.7-3.2,2.3-6.5,4.3-10.6,4.8-4.3.5-7.7-1.5-9.5-5.5-1.6-3.8-1.5-7.7-1.1-11.7.3-2.4.8-4.7,1.2-7.1-1.3-.4-2.7-.9-4-1.4-3.3-1.2-6.6-2.7-9.3-5-1.1-.9-2.1-1.9-3-3.1-2.6-3.5-2.5-7.3,0-10.8,1.9-2.6,4.5-4.4,7.4-5.8,2.9-1.3,5.9-2.5,8.9-3.7-.4-2.2-.8-4.5-1.1-6.9-.4-3.2-.4-6.5.4-9.6,1.6-6.2,6.3-9,12.5-7.2,4.6,1.4,8.4,4.2,12,7.3.6.6,1.3,1.1,2,1.8.5-.4.9-.8,1.3-1.2,3.2-2.9,6.5-5.5,10.5-7.2,1.5-.6,3.2-1.1,4.8-1.3,4.4-.4,7.7,1.8,9.3,5.9,1.4,3.7,1.4,7.5,1,11.3-.3,2.4-.8,4.7-1.1,7ZM49.9,64c2.4,0,4.8,0,7.1,0,.5,0,1.2-.3,1.4-.7,2.5-4.1,4.9-8.3,7.2-12.5.2-.4.2-1.2,0-1.6-2.3-4.1-4.7-8.3-7.2-12.4-.3-.4-1-.8-1.5-.8-4.7,0-9.4,0-14,0-.5,0-1.2.4-1.5.8-2.4,4-4.8,8.1-7.1,12.2-.3.5-.3,1.4,0,2,2.3,4.1,4.6,8.1,7,12.1.3.4,1,.8,1.5.9,2.3,0,4.7,0,7,0ZM52.8,77c.7.7,1.5,1.4,2.3,2.1,3,2.5,6,4.9,9.8,6,4.3,1.3,7.1-.4,8.1-4.8,1-4.9.2-9.6-.9-14.3-.2,0-.4-.1-.5,0-3.6.5-7.3,1.1-10.9,1.7-.3,0-.6.3-.9.6-2.3,2.9-4.6,5.8-7,8.9ZM47.2,76.9c-2.4-3.1-4.7-6-7-8.9-.2-.3-.6-.5-1-.5-3.4-.6-6.8-1.1-10.2-1.6-.6,0-1,0-1.1.7-.9,3.9-1.5,7.9-1.1,11.9.6,6.4,4.3,8.6,10.2,5.9,4-1.8,7.2-4.5,10.3-7.5ZM47.3,23c-.4-.3-.8-.7-1.2-1-3.2-2.9-6.5-5.6-10.7-6.9-4.5-1.5-7.6.2-8.3,4.8-.4,2.7-.3,5.5-.2,8.2.1,2.1.7,4.2,1.1,6.2,3.9-.6,7.5-1.1,11.1-1.7.4,0,1-.3,1.2-.6,2.3-2.9,4.6-5.8,7-8.9ZM52.7,23.1c1.8,2.1,3.6,4.1,5.1,6.3,1.5,2.3,3.3,3.5,6.1,3.6,2.7.1,5.4.8,8.2,1.3,1.1-4.8,2-9.5,1-14.3-.9-4.6-3.9-6.4-8.3-4.9-4.7,1.6-8.4,4.7-11.9,8.1ZM25.3,61.1c1.5-3.7,2.9-7.1,4.2-10.7.1-.4,0-.9-.2-1.4-.8-2.1-1.7-4.1-2.5-6.2-.5-1.3-.9-2.6-1.4-4-4.5,1.4-8.8,2.9-12.4,5.9-4.2,3.5-4.2,7.2,0,10.6,3.6,2.9,7.8,4.5,12.2,5.8ZM74.7,61.1c1.5-.5,3-.9,4.4-1.5,3.3-1.3,6.5-2.8,9-5.3,2.8-2.9,2.8-5.8,0-8.6-3.7-3.7-8.5-5.3-13.3-6.8-1.5,3.7-2.9,7.2-4.3,10.7,0,.2,0,.6,0,.9,1.4,3.5,2.8,6.9,4.2,10.6ZM37.1,63.6c-1.8-3.1-3.5-6-5.3-9.1-1,2.7-1.8,5.1-2.8,7.7,2.7.5,5.3.9,8.1,1.4ZM71,62.1c-1-2.6-1.8-5-2.8-7.7-1.8,3.2-3.5,6-5.3,9.1,2.8-.5,5.4-1,8.1-1.4ZM29,37.9c1,2.6,1.8,5,2.8,7.7,1.8-3.2,3.5-6,5.3-9.1-2.8.5-5.3.9-8.1,1.4ZM62.9,36.4c1.8,3.2,3.5,6,5.3,9.1,1-2.7,1.8-5.1,2.8-7.7-2.8-.5-5.3-.9-8.1-1.4ZM55.2,32c-1.8-2.2-3.5-4.1-5.2-6.2-1.8,2.1-3.4,4.1-5.2,6.2h10.4ZM44.8,68c1.8,2.2,3.4,4.1,5.2,6.2,1.8-2.1,3.4-4.1,5.2-6.2h-10.4Z"/>
    <path class="cls-2" d="M57.8,50.1c0,4.4-3.5,7.8-8,7.8-4.4,0-7.8-3.5-7.7-8,0-4.3,3.6-7.7,7.9-7.7,4.4,0,7.8,3.6,7.8,8Z"/>
  </g>
</svg>