<?xml version="1.0" encoding="UTF-8"?>
<svg id="Layer_1" data-name="Layer 1" xmlns="http://www.w3.org/2000/svg" version="1.1" viewBox="0 0 100 100">
  <defs>
    <style>
      .cls-1 {
        fill: #dee4f3;
      }

      .cls-1, .cls-2 {
        stroke-width: 0px;
      }

      .cls-2 {
        fill: #82d3f0;
      }
    </style>
  </defs>
  <path class="cls-2" d="M16.9,96c-8.9,0-16.2-7.2-16.2-16.2V20c0-8.9,7.2-16.2,16.2-16.2h66.5c8.9,0,16.2,7.2,16.2,16.2v59.9c0,8.9-7.2,16.2-16.2,16.2H16.9ZM16.9,5.2c-8.1,0-14.8,6.6-14.8,14.8v59.9c0,8.1,6.6,14.8,14.8,14.8h66.5c8.1,0,14.8-6.6,14.8-14.8V20c0-8.1-6.6-14.8-14.8-14.8H16.9Z"/>
  <path class="cls-2" d="M83.4,95.5H16.9c-8.6,0-15.6-7-15.6-15.6V20c0-8.6,7-15.6,15.6-15.6h66.5c8.6,0,15.6,7,15.6,15.6v59.9c0,8.6-7,15.6-15.6,15.6ZM16.9,4.7C8.4,4.7,1.5,11.5,1.5,20v59.9c0,8.4,6.9,15.3,15.3,15.3h66.5c8.4,0,15.3-6.9,15.3-15.3V20c0-8.4-6.9-15.3-15.3-15.3H16.9Z"/>
  <path class="cls-2" d="M20.8,99.9c-8.9,0-16.2-7.2-16.2-16.2V16.2c0-9,7.3-16.2,16.2-16.2h58.7c8.9,0,16.2,7.2,16.2,16.2v67.6c0,8.9-7.2,16.2-16.2,16.2H20.8ZM20.8,1.4c-8.1,0-14.8,6.6-14.8,14.8v67.6c0,8.1,6.6,14.8,14.8,14.8h58.7c8.1,0,14.8-6.6,14.8-14.8V16.2c0-8.1-6.6-14.8-14.8-14.8,0,0-58.7,0-58.7,0Z"/>
  <path class="cls-2" d="M79.5,99.3H20.8c-8.6,0-15.6-7-15.6-15.6V16.2c0-8.6,7-15.6,15.6-15.6h58.7c8.6,0,15.6,7,15.6,15.6v67.6c0,8.6-7,15.6-15.6,15.6h0ZM20.8.8C12.3.8,5.5,7.7,5.5,16.2v67.6c0,8.4,6.9,15.3,15.3,15.3h58.7c8.4,0,15.3-6.9,15.3-15.3V16.2c0-8.4-6.9-15.3-15.3-15.3H20.8Z"/>
  <path class="cls-1" d="M23.4,65.4l19.5-33.7h0c1.5-2.6,4.3-4.2,7.3-4.2s0,0,0,0c3,0,5.8,1.6,7.3,4.2l19.5,33.7c-.8,3.1-3,1.6-3,1.6l-19.5-33.7c-.9-1.6-2.6-2.6-4.5-2.6s-3.6,1-4.5,2.6h0s-19.5,33.7-19.5,33.7c0,0-2.7.9-2.7-1.6Z"/>
</svg>