<?xml version="1.0" encoding="UTF-8"?>
<svg id="Layer_1" data-name="Layer 1" xmlns="http://www.w3.org/2000/svg" version="1.1" viewBox="0 0 100 100">
  <defs>
    <style>
      .cls-1 {
        fill: #dee4f3;
      }

      .cls-1, .cls-2, .cls-3, .cls-4, .cls-5, .cls-6 {
        stroke-width: 0px;
      }

      .cls-2 {
        fill: none;
      }

      .cls-3 {
        fill: #f17796;
      }

      .cls-4 {
        fill: #70cff2;
      }

      .cls-7 {
        stroke: #dee4f3;
        stroke-miterlimit: 10;
        stroke-width: 25px;
      }

      .cls-7, .cls-6 {
        fill: #0a192e;
      }

      .cls-5 {
        fill: #dfe5f4;
      }
    </style>
  </defs>
  <path class="cls-5" d="M78.6,100H21.4c-11.8,0-21.4-9.6-21.4-21.4V21.4C0,9.6,9.6,0,21.4,0h57.2c11.8,0,21.4,9.6,21.4,21.4v57.2c0,11.8-9.6,21.4-21.4,21.4ZM21.4,4c-9.6,0-17.4,7.8-17.4,17.4v57.2c0,9.6,7.8,17.4,17.4,17.4h57.2c9.6,0,17.4-7.8,17.4-17.4V21.4c0-9.6-7.8-17.4-17.4-17.4H21.4Z"/>
  <g>
    <path class="cls-2" d="M-12.3-74.8c0,3.4,2.8,6.2,6.2,6.2S.1-71.3.1-74.8s-2.8-6.2-6.2-6.2-6.2,2.8-6.2,6.2Z"/>
    <path class="cls-2" d="M-6.1-65.2c-2.7,0-5.1-1.1-6.8-2.8h-21c3.1,12.8,14.5,21.9,27.8,21.9s24.7-9.1,27.8-21.9H.7c-1.7,1.8-4.1,2.8-6.8,2.8Z"/>
    <path class="cls-2" d="M12.6-96.4c-5.2-4.5-11.8-7-18.7-7s-13.5,2.5-18.7,7c-4.8,4.1-8,9.7-9.3,15.8H-13.7c1.8-2.3,4.5-3.7,7.6-3.7s5.8,1.5,7.6,3.7h20.4c-1.3-6.1-4.5-11.7-9.3-15.8ZM-8.2-92c-.2,0-.5,0-.7,0-3.1.5-5.7,2.5-6.9,5.2l-11-.3c2.1-6.3,7.6-11.1,14.6-12.1,1.9-.3,3.8-.2,5.6,0l-1.7,7.1Z"/>
    <path class="cls-1" d="M-6.1-81.9c-.2,0-.4,0-.7,0,.2,0,.4,0,.7,0h0Z"/>
    <path class="cls-1" d="M25-74.8c0-1.1,0-2.3-.2-3.4h0l-.2-1.4s0,0,0,0l-.2-1h0c-1.3-6.8-4.9-13.1-10.2-17.7-5.6-4.9-12.9-7.6-20.3-7.6s-14.7,2.7-20.3,7.6c-5.3,4.6-8.9,10.8-10.2,17.7h0l-.2,1-.2,1.4h0c-.1,1.1-.2,2.3-.2,3.4s.1,2.9.3,4.3h0l.3,1.5.2,1h0c3.1,14.2,15.7,24.3,30.3,24.3s27.2-10.2,30.3-24.3h0l.2-1s0,0,0,0l.3-1.5h0c.2-1.4.3-2.9.3-4.3ZM-6.1-46.2c-13.3,0-24.7-9.1-27.8-21.9H-12.9c1.7,1.8,4.1,2.8,6.8,2.8s5.1-1.1,6.8-2.8h21c-3.1,12.8-14.5,21.9-27.8,21.9ZM-6.1-81c3.4,0,6.2,2.8,6.2,6.2s-2.8,6.2-6.2,6.2-6.2-2.8-6.2-6.2,2.8-6.2,6.2-6.2ZM1.5-80.6c-1.8-2.3-4.5-3.7-7.6-3.7s-5.8,1.5-7.6,3.7h-20.4c1.3-6.1,4.5-11.7,9.3-15.8,5.2-4.5,11.8-7,18.7-7s13.5,2.5,18.7,7c4.8,4.1,8,9.7,9.3,15.8H1.5Z"/>
    <path class="cls-1" d="M-6.2-67.7s0,0,0,0,0,0,0,0c0,0,0,0,0,0s0,0,0,0Z"/>
    <path class="cls-1" d="M-12.2-99.1c-7,1-12.5,5.9-14.6,12.1l11,.3c1.2-2.7,3.7-4.7,6.9-5.2.2,0,.5,0,.7,0l1.7-7.1c-1.8-.3-3.7-.3-5.6,0Z"/>
  </g>
  <path class="cls-7" d="M-69.9,72.6"/>
  <g>
    <path class="cls-2" d="M-79.9,92.7c-.1,0-.3,0-.4,0-11.5-2.3-16.7-18.9-17-19.8-.6-1.9-1.1-3.8-1.4-5.7,0-.1,0-.3,0-.4-.1-.6-.2-1.2-.3-1.8,0-.4,0-.7-.1-1.1,0-.6-.1-1.1-.2-1.7,0-.2,0-.4,0-.5-.2-2.9-.2-5.7.1-8.5.6-5.3,2.1-10.4,4.5-15.4,1-2.1,2-3.9,3.1-5.5,4-6.9,8.4-11.9,10.7-14.4.2-.9.2-1.9.2-3-1.4-4.8-4.9-13.5-12.8-18.9-4.7-3.2-10.4-4.9-16.9-4.9s-6.6.4-10.2,1.2c-10.2,2.2-18.1,8.3-22.8,17.6-6.2,12.1-6.1,27.8.2,42.1,3.1,7.2,11,19.4,30.5,36.9,12.5,11.2,24.1,19.3,26.8,20.6,4.2,1.9,6.3.6,6.6.4,0,0,.1,0,.2-.2.3-.2,15-10.2,29.8-23.3-15.7,6.4-28.2,6.6-30.2,6.6s-.2,0-.2,0Z"/>
    <path class="cls-2" d="M-39.1,70.2c-9.4,6.7-17.7,11.9-24.9,15.7,5.3-1.3,11.7-3.3,18.3-6.6,4.7-2.8,9.2-6.3,13.2-10.1,2.8-3.2,5.3-6.4,7.4-9.6-3.8,3-8.7,6.8-14.1,10.6Z"/>
    <path class="cls-1" d="M-94.6,63.6c0-.5-.1-1.1-.2-1.6,0,.5.1,1.1.2,1.6Z"/>
    <path class="cls-1" d="M-94.3,51.9c.9-5.5,3-11.1,6.1-16.6.1-.2.3-.5.4-.7-1,1.5-2,3.3-2.9,5.2-2.1,4.5-3.5,9.2-4,13.9-.3,2.6-.3,5.3,0,7.9-.2-3.2,0-6.4.5-9.7Z"/>
    <path class="cls-1" d="M-99.2,63.8c0,.4,0,.7.1,1.1,0-.4,0-.7-.1-1.1Z"/>
    <path class="cls-1" d="M-98.7,66.7c0,.1,0,.3,0,.4,0-.1,0-.3,0-.4Z"/>
    <path class="cls-1" d="M-99.4,61.5c0,.2,0,.4,0,.5,0-.2,0-.4,0-.5Z"/>
    <path class="cls-1" d="M-85.4,24.1c.1-.1.3-.2.4-.3.1,0,3.1-1.9,4-5.8,0,0,0-.2,0-.3-2.4,2.5-6.8,7.5-10.7,14.4,3.2-5,6.2-7.9,6.3-8Z"/>
    <path class="cls-1" d="M-43.4,83.4c0,0-.1,0-.2,0-2,1-4,1.8-5.9,2.6-14.8,13.1-29.6,23.1-29.8,23.3-.1,0-.1,0-.2.2-.3.2-2.4,1.5-6.6-.4-2.7-1.2-14.3-9.4-26.8-20.6-19.5-17.5-27.4-29.7-30.5-36.9-6.3-14.3-6.3-30-.2-42.1,4.8-9.3,12.6-15.4,22.8-17.6.6-.1,1.2-.2,1.8-.3-1.8,1.4-3.8,3.2-5.8,5.4-3.9,4.3-7,9.2-9,14.5-2.6,6.7-3.6,14.1-3.2,22,0,1.2,1.1,2.2,2.3,2.2,0,0,0,0,.1,0,1.3,0,2.2-1.2,2.2-2.4-.4-7.2.5-14,2.8-20,1.8-4.8,4.5-9.2,8-13.1,5.6-6.2,11.5-9,12.3-9.4,4.8.2,9.2,1.3,13,3.3-4.1,1.5-9.7,4.9-14.4,9.2-5.2,4.8-9.1,10.5-11.5,16.9-3,7.9-3.7,16.7-2,26.2.2,1.1,1.2,1.9,2.3,1.9s.3,0,.4,0c1.2-.2,2.1-1.4,1.9-2.6-1.3-7.3-1-14.2.7-20.5,1.5-5.2,4-10,7.4-14.3,4.1-5,8.8-8.3,11.9-10.1,3.8-2.2,6.6-3,7.2-3,.4,0,.8,0,1.2-.1,3.2,2.8,5.5,6,7.1,9.2-2,.7-3.9,1.7-5.1,2.4-3.3,1.9-9.7,6.3-14.9,14.1-5.2,7.8-7.9,16.9-7.9,27.1s1,2.3,2.3,2.3,2.3-1,2.3-2.3c0-16,7.2-26.1,13.3-31.8,3.4-3.2,6.6-5.1,8.7-6.2,1.3-.7,2.4-1.1,3.2-1.4.5,1.4,1,2.6,1.3,3.7,0-1.2-.4-2.5-.8-3.8.5-.1.8-.2,1-.2,1,.4,2.2,0,2.8-1,.6-1.1.3-2.5-.8-3.1-1.2-.7-3.1-.4-4.9.2-.1-.2-.2-.4-.4-.6-.5-.8-.5-1.8,0-2.6.4-.6,1.1-1.4,1.9-2.3-2.2-3.3-5.1-6.6-9-9.2-8.1-5.6-18.5-7.1-30.7-4.4-5.9,1.3-11.1,3.7-15.6,7.3-4.2,3.4-7.7,7.6-10.3,12.7-6.8,13.3-6.8,30.5,0,46,6,13.8,20.5,28.5,31.7,38.5,12.1,10.8,24.5,19.7,28,21.3,2.3,1,4.3,1.4,5.9,1.4,3,0,4.8-1.2,5.4-1.6,1-.7,13.5-9.2,26.8-20.6,8.4-7.2,15.4-13.9,20.8-20.2-4.4,4.2-9.2,8-14.4,11Z"/>
    <path class="cls-1" d="M-76.6,19.1c0,.3-.2.6-.3.9.4-.4.6-.6.7-.6.6-.5.8-1.3.7-2,0-.2-.2-1.5-.8-3.5.2,1.8.1,3.6-.3,5.3Z"/>
    <path class="cls-1" d="M-94.5,64.4c0-.3,0-.6-.1-.8,0,.3,0,.6.1.8Z"/>
    <path class="cls-1" d="M-99.1,64.9c0,.6.2,1.2.3,1.8-.1-.6-.2-1.2-.3-1.8Z"/>
    <path class="cls-1" d="M-99.4,62.1c0,.6.1,1.1.2,1.7,0-.6-.1-1.1-.2-1.7Z"/>
    <path class="cls-1" d="M-81,17.7c.3-.3.5-.6.8-.8-.1-.6-.3-1.3-.6-2.2,0,1,0,2-.2,3Z"/>
    <path class="cls-1" d="M-94.8,61.9c0-.1,0-.3,0-.4,0,.1,0,.3,0,.4Z"/>
    <path class="cls-1" d="M-99.3,53c-.3,2.8-.4,5.7-.1,8.5-.2-3.5,0-7,.6-10.5,1-6,3.3-12.1,6.6-18.1.2-.3.3-.5.5-.8-1,1.6-2.1,3.5-3.1,5.5-2.4,5-3.9,10.1-4.5,15.4Z"/>
  </g>
  <path class="cls-1" d="M-110,36.9c-3.8-4.7-9.9-4-10.9-3.3.1-.1.4-.5.4-1.1h-4.6c0-.9.4-2.5,3-3.4,3.5-1.2,10.8-1,15.6,4.9l-3.6,2.9Z"/>
  <g>
    <path class="cls-6" d="M-105.6,28c-7.7-4.1-14.7-1.6-13.8-2.8"/>
    <path class="cls-1" d="M-105.7,30.2c-.4,0-.7,0-1.1-.3-4.5-2.4-8.7-2.2-11-2.2-1.6,0-3,0-3.8-1.3-.5-.8-.4-1.8.1-2.6.7-1.1,2.1-1.4,3.2-.7,0,0,0,0,0,0,.1,0,.2,0,.3,0,2.5,0,7.7-.2,13.3,2.7,1.1.6,1.5,2,1,3.1-.4.8-1.2,1.2-2,1.2ZM-117.6,26.4s0,0,0,0c0,0,0,0,0,0Z"/>
  </g>
  <path class="cls-1" d="M-20.3-1.8c-4.7-4.9-15.1-10.6-25.9-12-16.5-2.1-30.3,9.2-35.7,15.1-.9.9-1.5,1.7-1.9,2.3-.5.8-.6,1.8,0,2.6,1.9,3.1,3,6,3.2,8.6.3.9.5,1.6.6,2.2-.2.2-.5.5-.8.8,0,0,0,.2,0,.3-.9,3.9-3.9,5.8-4,5.8-.1,0-.3.2-.4.3-.2.2-3.1,3-6.3,8-.2.3-.3.5-.5.8-3.4,6-5.6,12.1-6.6,18.1-.6,3.6-.8,7.1-.6,10.5,0,.2,0,.4,0,.5,0,.6.1,1.1.2,1.7,0,.4,0,.7.1,1.1,0,.6.2,1.2.3,1.8,0,.1,0,.3,0,.4.4,1.9.8,3.8,1.4,5.7.3,1,5.4,17.5,17,19.8.1,0,.3,0,.4,0,0,0,.1,0,.2,0,2,0,14.5-.3,30.2-6.6,1.9-.8,3.9-1.6,5.9-2.6,0,0,.1,0,.2,0,5.2-3.1,10-6.8,14.4-11,3.2-3.1,6.2-6.4,8.8-10,6.5-8.8,10.7-18.4,11.9-27.8,1.9-13.6-2.3-26.2-12.1-36.4ZM-92.8,71.5s0,0,0,0c-.7-2.3-1.3-4.6-1.6-7,.2,0,.4,0,.6-.2,0,0,.2,0,.3,0,1.9.3,5.3.9,9.7.9s6.4-.2,10.2-1c4.5-.9,8.8-2.3,13.1-4.4l.5.5c1,4,4,6.6,5.9,7.9-.9.5-1.7.9-2.6,1.3-5.2,2.4-11,4.1-17.1,4.9-8.3,1.1-15,.5-17.6.1-.8-1.9-1.2-3.2-1.2-3.3ZM-12.8,34c-.2,1.2-.4,2.4-.6,3.5-1.6,7.5-5.2,15.1-10.4,22.2-2.5,3.4-5.4,6.6-8.5,9.6-4,3.9-8.5,7.3-13.2,10.1-6.7,3.2-13,5.3-18.3,6.6-8.4,2-14.5,2.2-15.6,2.2-4.2-1-7.4-4.8-9.6-8.5,1.6.1,3.5.2,5.8.2s6.2-.2,9.8-.7c6.6-.9,12.8-2.7,18.5-5.3,7.1-3.3,13.3-7.9,18.4-13.8.8-1,.7-2.4-.2-3.2-1-.8-2.4-.7-3.2.2-1.5,1.7-3.1,3.3-4.8,4.8-5-1.7-6-4.1-7-6.7,0,0,0-.2-.1-.3,3.6-2.5,7.1-5.4,10.4-8.8.9-.9.9-2.4,0-3.2-.9-.9-2.4-.9-3.2,0-9,9.1-19,14.8-29.6,16.9-8.6,1.7-15.3.6-18.2.1-.6,0-1-.2-1.4-.2-.3,0-.5,0-.8,0,0-2,0-4.1.2-6.1.3-2.4.8-4.8,1.4-7.2,2.3,1,7.1,2.7,13.5,2.7h0c5.2,0,10.3-1.1,15.2-3.3,6.1-2.7,11.9-7.1,17.2-13.1.8-.9.8-2.4-.2-3.2-.9-.8-2.4-.8-3.2.2-4.9,5.4-10.1,9.4-15.5,11.9-4.3,1.9-8.8,3-13.2,3,0,0-.2,0-.2,0-5.9,0-10.3-1.7-11.9-2.5.3-.8.7-1.6,1-2.4.9-2,1.9-3.7,2.9-5.2,1-1.8,2.1-3.4,3.1-4.9,0,.8.4,1.7,1.2,2.1.2,0,3.3,1.6,7.6,1.6s3.9-.3,6.1-1.1c6.1-2.2,11-7.6,14.7-16.1.5-1.2,0-2.5-1.2-3-1.2-.5-2.5,0-3,1.2-3.1,7.2-7.1,11.8-11.9,13.6-5.4,2-10.1-.3-10.1-.3-.6-.3-.5-1.3-1.1-1.1,2.8-3.7,4.5-5.4,5.7-6.5,0-.3.2-.6.3-.9.4-1.7.5-3.5.3-5.3-.3-2.8-1.3-5.7-3-8.7,4.1-4.7,17.2-16.3,32.5-14.3,9.6,1.2,19.1,6.4,23.1,10.6,4.6,4.8,7.8,10.1,9.6,15.8,1.7,5.3,2.1,11,1.3,16.8ZM-49.2,65.2s0,0,0,0c0,0,0,0,0,0,0,0,0,0,0,0Z"/>
  <polygon class="cls-1" points="-121.6 30.9 -119.7 27.2 -113.5 26.3 -105.5 28 -108.9 34.2 -121.6 30.9"/>
  <polyline class="cls-1" points="-121.1 29.2 -122.7 35.5 -117.6 32.4 -118.6 30.2"/>
  <g>
    <path class="cls-3" d="M65.8,20.1c-7.4-.9-13.7,3.8-16.5,6.7-1-1.5-2.4-3-4.1-4.2-3.9-2.7-8.8-3.4-14.5-2.1-2.8.6-5.3,1.8-7.4,3.5-2,1.6-3.7,3.6-4.9,6-3.2,6.3-3.2,14.3,0,21.7,2.8,6.4,9.6,13.3,14.8,17.9,5.9,5.2,11.4,9.2,13,9.9,1.1.5,2.1.7,2.9.7,1.5,0,2.4-.6,2.7-.9.6-.4,6.3-4.3,12.4-9.5,3.1-2.6,5.7-5.1,7.9-7.4,2.2-1.9,4.2-4,5.9-6.3,3.1-4.1,5-8.7,5.6-13.1.9-6.4-1.1-12.4-5.7-17.2-2.2-2.3-7.1-5-12.2-5.7ZM45.7,26.9c.9.8,1.5,1.9,2,2.9-.6.3-1.3.6-2,1-2.6,1.4-4.9,3.1-7,6.7,0,.1-.2.3-.3.4-1.3-1.1-2.9-1.6-4.9-1.6-.1,0-.2,0-.4,0,.6-1.2,1.2-2.3,2.1-3.3,1.9-2.4,4-3.9,5.5-4.8,1.7-1,2.2-1.1,3.4-1.5.4,0,.9-.4,1.6.3ZM37,40.6c-.1.3-.3.6-.4,1-1-.5-2.3-.6-3.4-.6-.5,0-1,0-1.4.2,0-.6.2-1.1.3-1.6.4,0,1-.2,1.6-.2,1.4,0,2.5.4,3.3,1.3ZM50.2,76.9c0,0,0,0-.1.1-.2,0-1,.5-2.6-.2-1.2-.5-6.6-4.4-12.3-9.4-9-8-12.6-13.6-14-16.9-2.8-6.5-2.9-13.6,0-19.1,2.1-4.1,5.6-6.8,10-7.9-.7.6-1.5,1.3-2.3,2.2-1.8,2-3.3,4.3-4.3,6.9-1.2,3.1-1.7,6.6-1.5,10.4,0,.8.7,1.4,1.5,1.4s0,0,0,0c.8,0,1.4-.8,1.4-1.6-.2-3.3.2-6.3,1.3-9.1.8-2.2,2-4.2,3.6-5.9,2.7-3,5.6-4.3,5.6-4.3.3-.1,1-.5,1.6-.5,1.8.1,2.5.6,4,1.3-.5.2-1,.4-1.4.6-1.3.6-3.3,1.8-5.4,3.7-2.5,2.3-4.3,5-5.4,8-1.4,3.7-1.7,7.9-1,12.4.1.7.8,1.2,1.5,1.2s.2,0,.3,0c.8-.1,1.3-.9,1.2-1.7-.2-1.4-.4-2.8-.4-4.1.4,0,1.1-.2,1.9-.3,1.3,0,1.9.2,2.1.4l.3-.2c-.5,1.9-.7,3.9-.7,6s.7,1.5,1.5,1.5,1.5-.7,1.5-1.5c0-6.8,2.9-11.3,5.4-13.8,2.2-2.2,4.4-3.4,5.6-3.9.2.5.3.9.4,1.3,0,.2,0,.4,0,.6-1.1,1.2-3.4,3.7-5.3,7.2-1.6,2.8-2.6,5.7-3.1,8.5-.5,3-.4,6,.4,8.8.1.5.2.9.4,1.4,0,0,0,.1,0,.2,0,0,0,.1,0,.2.2.5,2.6,8.3,8.2,9.5,0,0,.2,0,.3,0,0,0,0,0,.1,0,.8,0,5.3,0,11.3-2.1-6,5-11.4,8.7-11.4,8.7ZM44.2,58.1c0-.3-.1-.7-.2-1,.9.1,2.4.4,4.4.4,1.4,0,3-.1,4.8-.5,1.5-.3,2.9-.7,4.3-1.2.3,1.3,1.1,2.5,2.3,3.4-2.1.9-4.4,1.5-6.8,1.8-3.6.5-6.5.2-7.8,0-.2-.5-.3-.9-.4-1.2,0,0,0,0,0,0,0-.1,0-.3-.1-.4h0c-.1-.4-.3-.9-.4-1.3ZM80.8,42.5c-.5,3.9-2.3,7.9-5,11.7-2.7,3.6-6.1,6.7-9.9,9-7.7,3.8-14.4,4-15.5,4-1.5-.4-2.7-1.6-3.7-3,.6,0,1.2,0,1.9,0,1.3,0,2.9,0,4.6-.3,3.1-.4,6-1.3,8.7-2.5,3.3-1.5,6.2-3.7,8.7-6.5.5-.6.5-1.6-.1-2.1-.6-.5-1.6-.5-2.1.1-.5.5-.9,1-1.4,1.5,0,0,0,0,0,0-1-.5-1.6-.9-2-1.2-.2-.2-.3-.4-.5-.9,0-.1,0-.2-.1-.4,1.4-1,2.7-2.2,4-3.5.6-.6.6-1.5,0-2.1-.6-.6-1.5-.6-2.1,0-4.1,4.1-8.6,6.7-13.5,7.7-3.9.8-7,.3-8.3,0-.3,0-.5,0-.6,0,0-1.7.2-3.4.6-5.1,1.2.5,3.3,1.1,6,1.1h0c2.4,0,4.9-.5,7.2-1.6,2.9-1.3,5.6-3.4,8.1-6.1.5-.6.5-1.5-.1-2.1-.6-.5-1.5-.5-2.1.1-2.2,2.5-4.6,4.3-7,5.4-1.9.9-3.9,1.3-5.9,1.4-2.3,0-4.2-.6-5.1-.9,0-.2.2-.4.3-.7.6-1.2,1.2-2.2,1.7-3,1.6,0,3.7.3,4.8.3s1.9-.1,2.9-.5c2.9-1.1,5.3-3.6,7-7.7.3-.8,0-1.6-.8-2-.8-.3-1.6,0-2,.8-1.4,3.2-3.2,5.3-5.3,6-1.8.7-3.4.2-4,0,.8-.8,1.7-2,2.1-3.5,0,0,.5-1.6,0-3.2-.4-1.2-1.1-3.4-1.1-3.4,2-2.2,7.8-7.1,14.5-6.3,4.9.6,9,3.3,10.5,4.8,2.1,2.2,3.5,4.6,4.3,7.2.7,2.4.9,4.9.6,7.6ZM60.3,54.5c.5-.2.9-.5,1.4-.8.4,1.1.9,1.9,2.7,2.9-.4.3-.9.6-1.3.9-.2,0-.8-.2-1.5-.7-.9-.6-1.3-1.3-1.3-2.3Z"/>
    <path class="cls-5" d="M65.8,20.1c-7.4-.9-13.7,3.8-16.5,6.7-1-1.5-2.4-3-4.1-4.2-3.9-2.7-8.8-3.4-14.5-2.1-2.8.6-5.3,1.8-7.4,3.5-2,1.6-3.7,3.6-4.9,6-3.2,6.3-3.2,14.3,0,21.7,2.8,6.4,9.6,13.3,14.8,17.9,5.9,5.2,11.4,9.2,13,9.9,1.1.5,2.1.7,2.9.7,1.5,0,2.4-.6,2.7-.9.6-.4,6.3-4.3,12.4-9.5,3.1-2.6,5.7-5.1,7.9-7.4,2.2-1.9,4.2-4,5.9-6.3,3.1-4.1,5-8.7,5.6-13.1.9-6.4-1.1-12.4-5.7-17.2-2.2-2.3-7.1-5-12.2-5.7ZM45.7,26.9c.9.8,1.5,1.9,2,2.9-.6.3-1.3.6-2,1-2.6,1.4-4.9,3.1-7,6.7,0,.1-.2.3-.3.4-1.3-1.1-2.9-1.6-4.9-1.6-.1,0-.2,0-.4,0,.6-1.2,1.2-2.3,2.1-3.3,1.9-2.4,4-3.9,5.5-4.8,1.7-1,2.2-1.1,3.4-1.5.4,0,.9-.4,1.6.3ZM37,40.6c-.1.3-.3.6-.4,1-1-.5-2.3-.6-3.4-.6-.5,0-1,0-1.4.2,0-.6.2-1.1.3-1.6.4,0,1-.2,1.6-.2,1.4,0,2.5.4,3.3,1.3ZM50.2,76.9c0,0,0,0-.1.1-.2,0-1,.5-2.6-.2-1.2-.5-6.6-4.4-12.3-9.4-9-8-12.6-13.6-14-16.9-2.8-6.5-2.9-13.6,0-19.1,2.1-4.1,5.6-6.8,10-7.9-.7.6-1.5,1.3-2.3,2.2-1.8,2-3.3,4.3-4.3,6.9-1.2,3.1-1.7,6.6-1.5,10.4,0,.8.7,1.4,1.5,1.4s0,0,0,0c.8,0,1.4-.8,1.4-1.6-.2-3.3.2-6.3,1.3-9.1.8-2.2,2-4.2,3.6-5.9,2.7-3,5.6-4.3,5.6-4.3.3-.1,1-.5,1.6-.5,1.8.1,2.5.6,4,1.3-.5.2-1,.4-1.4.6-1.3.6-3.3,1.8-5.4,3.7-2.5,2.3-4.3,5-5.4,8-1.4,3.7-1.7,7.9-1,12.4.1.7.8,1.2,1.5,1.2s.2,0,.3,0c.8-.1,1.3-.9,1.2-1.7-.2-1.4-.4-2.8-.4-4.1.4,0,1.1-.2,1.9-.3,1.3,0,1.9.2,2.1.4l.3-.2c-.5,1.9-.7,3.9-.7,6s.7,1.5,1.5,1.5,1.5-.7,1.5-1.5c0-6.8,2.9-11.3,5.4-13.8,2.2-2.2,4.4-3.4,5.6-3.9.2.5.3.9.4,1.3,0,.2,0,.4,0,.6-1.1,1.2-3.4,3.7-5.3,7.2-1.6,2.8-2.6,5.7-3.1,8.5-.5,3-.4,6,.4,8.8.1.5.2.9.4,1.4,0,0,0,.1,0,.2,0,0,0,.1,0,.2.1.3,1.3,4.2,3.8,6.9s2.6,2.2,4.3,2.6c0,0,.2,0,.3,0,0,0,0,0,.1,0,.8,0,5.3,0,11.3-2.1-6,5-11.4,8.7-11.4,8.7ZM44.2,58.1c0-.3-.1-.7-.2-1,.9.1,2.4.4,4.4.4,1.4,0,3-.1,4.8-.5,1.5-.3,2.9-.7,4.3-1.2.3,1.3,1.1,2.5,2.3,3.4-2.1.9-4.4,1.5-6.8,1.8-3.6.5-6.5.2-7.8,0-.2-.5-.3-.9-.4-1.2,0,0,0,0,0,0,0-.1,0-.3-.1-.4h0c-.1-.4-.3-.9-.4-1.3ZM80.8,42.5c-.5,3.9-2.3,7.9-5,11.7-2.7,3.6-6.1,6.7-9.9,9-7.7,3.8-14.4,4-15.5,4-1.5-.4-2.7-1.6-3.7-3,.6,0,1.2,0,1.9,0,1.3,0,2.9,0,4.6-.3,3.1-.4,6-1.3,8.7-2.5,3.3-1.5,6.2-3.7,8.7-6.5.5-.6.5-1.6-.1-2.1-.6-.5-1.6-.5-2.1.1-.5.5-.9,1-1.4,1.5,0,0,0,0,0,0-1-.5-1.6-.9-2-1.2-.2-.2-.3-.4-.5-.9,0-.1,0-.2-.1-.4,1.4-1,2.7-2.2,4-3.5.6-.6.6-1.5,0-2.1-.6-.6-1.5-.6-2.1,0-4.1,4.1-8.6,6.7-13.5,7.7-3.9.8-7,.3-8.3,0-.3,0-.5,0-.6,0,0-1.7.2-3.4.6-5.1,1.2.5,3.3,1.1,6,1.1h0c2.4,0,4.9-.5,7.2-1.6,2.9-1.3,5.6-3.4,8.1-6.1.5-.6.5-1.5-.1-2.1-.6-.5-1.5-.5-2.1.1-2.2,2.5-4.6,4.3-7,5.4-1.9.9-3.9,1.3-5.9,1.4-2.3,0-4.2-.6-5.1-.9,0-.2.2-.4.3-.7.6-1.2,1.2-2.2,1.7-3,1.6,0,3.7.3,4.8.3s1.9-.1,2.9-.5c2.9-1.1,5.3-3.6,7-7.7.3-.8,0-1.6-.8-2-.8-.3-1.6,0-2,.8-1.4,3.2-3.2,5.3-5.3,6-1.8.7-3.4.2-4,0,.8-.8,1.7-2,2.1-3.5,0,0,.5-1.6,0-3.2-.4-1.2-1.1-3.4-1.1-3.4,2-2.2,7.8-7.1,14.5-6.3,4.9.6,9,3.3,10.5,4.8,2.1,2.2,3.5,4.6,4.3,7.2.7,2.4.9,4.9.6,7.6ZM60.3,54.5c.5-.2.9-.5,1.4-.8.4,1.1.9,1.9,2.7,2.9-.4.3-.9.6-1.3.9-.2,0-.8-.2-1.5-.7-.9-.6-1.3-1.3-1.3-2.3Z"/>
    <path class="cls-3" d="M32.1,39.4c-.1.5-.2,1.1-.3,1.6.4,0,.9-.1,1.4-.2,1.1,0,2.3,0,3.4.6.1-.3.3-.6.4-1-.8-.9-1.8-1.3-3.3-1.3-.6,0-1.2.1-1.6.2Z"/>
    <path class="cls-4" d="M32.1,39.4c-.1.5-.2,1.1-.3,1.6.4,0,.9-.1,1.4-.2,1.1,0,2.3,0,3.4.6.1-.3.3-.6.4-1-.8-.9-1.8-1.3-3.3-1.3-.6,0-1.2.1-1.6.2Z"/>
    <path class="cls-3" d="M63,57.5c.5-.3.9-.6,1.3-.9-1.7-1-2.3-1.8-2.7-2.9-.5.3-.9.5-1.4.8,0,1,.4,1.7,1.3,2.3.6.4,1.3.6,1.5.7Z"/>
    <path class="cls-4" d="M63,57.5c.5-.3.9-.6,1.3-.9-1.7-1-2.3-1.8-2.7-2.9-.5.3-.9.5-1.4.8,0,1,.4,1.7,1.3,2.3.6.4,1.3.6,1.5.7Z"/>
  </g>
</svg>